<svg width="16" height="19" viewBox="0 0 16 19" fill="none" xmlns="http://www.w3.org/2000/svg">
<path d="M0.192187 17.0825V7.52002H15.9422V17.0825C15.9422 18.0317 15.1687 18.77 14.2547 18.77H1.87969C0.930469 18.77 0.192187 18.0317 0.192187 17.0825ZM11.4422 10.1919V11.5981C11.4422 11.8442 11.618 12.02 11.8641 12.02H13.2703C13.4812 12.02 13.6922 11.8442 13.6922 11.5981V10.1919C13.6922 9.98096 13.4812 9.77002 13.2703 9.77002H11.8641C11.618 9.77002 11.4422 9.98096 11.4422 10.1919ZM11.4422 14.6919V16.0981C11.4422 16.3442 11.618 16.52 11.8641 16.52H13.2703C13.4812 16.52 13.6922 16.3442 13.6922 16.0981V14.6919C13.6922 14.481 13.4812 14.27 13.2703 14.27H11.8641C11.618 14.27 11.4422 14.481 11.4422 14.6919ZM6.94219 10.1919V11.5981C6.94219 11.8442 7.11797 12.02 7.36406 12.02H8.77031C8.98125 12.02 9.19219 11.8442 9.19219 11.5981V10.1919C9.19219 9.98096 8.98125 9.77002 8.77031 9.77002H7.36406C7.11797 9.77002 6.94219 9.98096 6.94219 10.1919ZM6.94219 14.6919V16.0981C6.94219 16.3442 7.11797 16.52 7.36406 16.52H8.77031C8.98125 16.52 9.19219 16.3442 9.19219 16.0981V14.6919C9.19219 14.481 8.98125 14.27 8.77031 14.27H7.36406C7.11797 14.27 6.94219 14.481 6.94219 14.6919ZM2.44219 10.1919V11.5981C2.44219 11.8442 2.61797 12.02 2.86406 12.02H4.27031C4.48125 12.02 4.69219 11.8442 4.69219 11.5981V10.1919C4.69219 9.98096 4.48125 9.77002 4.27031 9.77002H2.86406C2.61797 9.77002 2.44219 9.98096 2.44219 10.1919ZM2.44219 14.6919V16.0981C2.44219 16.3442 2.61797 16.52 2.86406 16.52H4.27031C4.48125 16.52 4.69219 16.3442 4.69219 16.0981V14.6919C4.69219 14.481 4.48125 14.27 4.27031 14.27H2.86406C2.61797 14.27 2.44219 14.481 2.44219 14.6919ZM14.2547 3.02002C15.1687 3.02002 15.9422 3.79346 15.9422 4.70752V6.39502H0.192187V4.70752C0.192187 3.79346 0.930469 3.02002 1.87969 3.02002H3.56719V1.33252C3.56719 1.05127 3.81328 0.77002 4.12969 0.77002H5.25469C5.53594 0.77002 5.81719 1.05127 5.81719 1.33252V3.02002H10.3172V1.33252C10.3172 1.05127 10.5633 0.77002 10.8797 0.77002H12.0047C12.2859 0.77002 12.5672 1.05127 12.5672 1.33252V3.02002H14.2547Z" fill="#D7B65D"/>
</svg>
