<svg width="19" height="15" viewBox="0 0 19 15" fill="none" xmlns="http://www.w3.org/2000/svg">
<path d="M17.6961 4.45752C17.9773 4.45752 18.1883 4.73877 18.118 4.98486L17.907 5.82861C17.8719 6.03955 17.6961 6.14502 17.5203 6.14502H16.782C17.2742 6.56689 17.5906 7.16455 17.5906 7.83252V9.52002C17.5906 10.1177 17.3445 10.6099 17.0281 10.9966V12.895C17.0281 13.5278 16.5008 14.02 15.9031 14.02H14.7781C14.1453 14.02 13.6531 13.5278 13.6531 12.895V11.77H4.65313V12.895C4.65313 13.5278 4.12578 14.02 3.52813 14.02H2.40313C1.77031 14.02 1.27813 13.5278 1.27813 12.895V10.9966C0.926563 10.6099 0.715626 10.1177 0.715626 9.52002V7.83252C0.715626 7.16455 0.996876 6.56689 1.48906 6.14502H0.785938C0.575001 6.14502 0.39922 6.03955 0.364063 5.82861L0.153126 4.98486C0.0828133 4.73877 0.293751 4.45752 0.575001 4.45752H2.64922L3.24688 3.01611C3.84453 1.50439 5.28594 0.52002 6.90313 0.52002H11.368C12.9852 0.52002 14.4266 1.50439 15.0242 3.01611L15.6219 4.45752H17.6961ZM5.32109 3.85986L4.65313 5.58252H13.6531L12.95 3.85986C12.6688 3.19189 12.0711 2.77002 11.368 2.77002H6.90313C6.2 2.77002 5.60234 3.19189 5.32109 3.85986ZM3.52813 9.52002C4.19609 9.52002 5.21563 9.62549 5.21563 8.95752C5.21563 8.28955 4.19609 7.27002 3.52813 7.27002C2.825 7.27002 2.40313 7.72705 2.40313 8.39502C2.40313 9.09814 2.825 9.52002 3.52813 9.52002ZM14.7781 9.52002C15.4461 9.52002 15.9031 9.09814 15.9031 8.39502C15.9031 7.72705 15.4461 7.27002 14.7781 7.27002C14.075 7.27002 13.0906 8.28955 13.0906 8.95752C13.0906 9.62549 14.075 9.52002 14.7781 9.52002Z" fill="#D7B65D"/>
</svg>
