<svg width="18" height="18" viewBox="0 0 18 18" fill="none" xmlns="http://www.w3.org/2000/svg">
<path d="M9.15313 0.0512695C13.9695 0.0512695 17.8719 3.95361 17.8719 8.77002C17.8719 13.5864 13.9695 17.4888 9.15313 17.4888C4.33672 17.4888 0.434376 13.5864 0.434376 8.77002C0.434376 3.95361 4.33672 0.0512695 9.15313 0.0512695ZM12.3875 11.0552C12.4578 10.9849 12.5281 10.8442 12.5281 10.7036C12.5281 10.5278 12.4227 10.3872 12.3172 10.2817L10.2781 8.77002V3.70752C10.2781 3.42627 9.99688 3.14502 9.71563 3.14502H8.59063C8.27422 3.14502 8.02813 3.42627 8.02813 3.70752V9.19189C8.02813 9.64893 8.20391 10.0356 8.55547 10.2817L10.9109 12.0396C10.9813 12.1099 11.1219 12.1802 11.2273 12.1802C11.4383 12.1802 11.5789 12.0747 11.6844 11.9341L12.3875 11.0552Z" fill="#D7B65D"/>
</svg>
