<svg xmlns="http://www.w3.org/2000/svg" id="&#x421;&#x43B;&#x43E;&#x439;_1" data-name="&#x421;&#x43B;&#x43E;&#x439; 1" viewBox="0 0 43.78 63.97" width="60" height="60" fill="#D7B65D"><defs><style>.cls-1{fill:#d6bb69;}</style></defs><title>slider_navigation_1</title><polygon class="cls-1" points="10.6 0 9 0 42.18 31.99 9 63.97 10.6 63.97 43.78 31.99 10.6 0 10.6 0"></polygon><polygon class="cls-1" points="1.6 0 0 0 33.19 31.99 0 63.97 1.6 63.97 34.79 31.99 1.6 0 1.6 0"></polygon><polygon class="cls-1" points="10.6 0 9 0 42.18 31.99 9 63.97 10.6 63.97 43.78 31.99 10.6 0 10.6 0"></polygon><polygon class="cls-1" points="1.6 0 0 0 33.19 31.99 0 63.97 1.6 63.97 34.79 31.99 1.6 0 1.6 0"></polygon><polygon class="cls-1" points="10.6 0 9 0 42.18 31.99 9 63.97 10.6 63.97 43.78 31.99 10.6 0 10.6 0"></polygon><polygon class="cls-1" points="1.6 0 0 0 33.19 31.99 0 63.97 1.6 63.97 34.79 31.99 1.6 0 1.6 0"></polygon><polygon class="cls-1" points="10.6 0 9 0 42.18 31.99 9 63.97 10.6 63.97 43.78 31.99 10.6 0 10.6 0"></polygon><polygon class="cls-1" points="1.6 0 0 0 33.19 31.99 0 63.97 1.6 63.97 34.79 31.99 1.6 0 1.6 0"></polygon><polygon class="cls-1" points="10.6 0 9 0 42.18 31.99 9 63.97 10.6 63.97 43.78 31.99 10.6 0 10.6 0"></polygon><polygon class="cls-1" points="1.6 0 0 0 33.19 31.99 0 63.97 1.6 63.97 34.79 31.99 1.6 0 1.6 0"></polygon><polygon class="cls-1" points="10.6 0 9 0 42.18 31.99 9 63.97 10.6 63.97 43.78 31.99 10.6 0 10.6 0"></polygon><polygon class="cls-1" points="1.6 0 0 0 33.19 31.99 0 63.97 1.6 63.97 34.79 31.99 1.6 0 1.6 0"></polygon><polygon class="cls-1" points="10.6 0 9 0 42.18 31.99 9 63.97 10.6 63.97 43.78 31.99 10.6 0 10.6 0"></polygon><polygon class="cls-1" points="1.6 0 0 0 33.19 31.99 0 63.97 1.6 63.97 34.79 31.99 1.6 0 1.6 0"></polygon><polygon class="cls-1" points="10.6 0 9 0 42.18 31.99 9 63.97 10.6 63.97 43.78 31.99 10.6 0 10.6 0"></polygon><polygon class="cls-1" points="1.6 0 0 0 33.19 31.99 0 63.97 1.6 63.97 34.79 31.99 1.6 0 1.6 0"></polygon><polygon points="10.6 0 9 0 42.18 31.99 9 63.97 10.6 63.97 43.78 31.99 10.6 0 10.6 0"></polygon><polygon points="1.6 0 0 0 33.19 31.99 0 63.97 1.6 63.97 34.79 31.99 1.6 0 1.6 0"></polygon></svg>
