<svg width="23" height="17" viewBox="0 0 23 17" fill="none" xmlns="http://www.w3.org/2000/svg">
<path d="M22.506 5.95703C22.6778 5.82812 22.9356 5.95703 22.9356 6.17188V14.9375C22.9356 16.0977 21.9903 17 20.8731 17H2.99815C1.83799 17 0.935645 16.0977 0.935645 14.9375V6.17188C0.935645 5.95703 1.15049 5.82812 1.32236 5.95703C2.31065 6.73047 3.55674 7.67578 7.93955 10.8555C8.8419 11.5 10.3888 12.918 11.9356 12.918C13.4396 12.918 15.0294 11.5 15.8888 10.8555C20.2716 7.67578 21.5177 6.73047 22.506 5.95703ZM11.9356 11.5C10.9044 11.543 9.48643 10.2539 8.75596 9.73828C3.04111 5.61328 2.61143 5.22656 1.32236 4.19531C1.06455 4.02344 0.935645 3.72266 0.935645 3.37891V2.5625C0.935645 1.44531 1.83799 0.5 2.99815 0.5H20.8731C21.9903 0.5 22.9356 1.44531 22.9356 2.5625V3.37891C22.9356 3.72266 22.7638 4.02344 22.506 4.19531C21.2169 5.22656 20.7872 5.61328 15.0724 9.73828C14.3419 10.2539 12.9239 11.543 11.9356 11.5Z" fill="#D7B65D"/>
</svg>
