<svg width="14" height="10" viewBox="0 0 14 10" fill="none" xmlns="http://www.w3.org/2000/svg">
<path d="M13.7363 4.53223C13.7832 4.62598 13.8066 4.74316 13.8066 4.88379C13.8066 5.00098 13.7832 5.11816 13.7363 5.21191C12.4707 7.69629 9.93945 9.36035 7.08008 9.36035C4.19727 9.36035 1.66602 7.69629 0.400391 5.21191C0.353516 5.11816 0.330078 5.00098 0.330078 4.86035C0.330078 4.74316 0.353516 4.62598 0.400391 4.53223C1.66602 2.04785 4.19727 0.360352 7.08008 0.360352C9.93945 0.360352 12.4707 2.04785 13.7363 4.53223ZM7.08008 8.23535V8.25879C8.93164 8.25879 10.4551 6.73535 10.4551 4.88379V4.86035C10.4551 3.00879 8.93164 1.48535 7.08008 1.48535C5.20508 1.48535 3.70508 3.00879 3.70508 4.86035C3.70508 6.73535 5.20508 8.23535 7.08008 8.23535ZM7.08008 2.61035V2.63379C8.32227 2.63379 9.33008 3.61816 9.33008 4.86035C9.33008 6.10254 8.32227 7.11035 7.08008 7.11035C5.83789 7.11035 4.83008 6.10254 4.83008 4.86035C4.83008 4.67285 4.85352 4.46191 4.90039 4.27441C5.08789 4.41504 5.32227 4.48535 5.58008 4.48535C6.18945 4.48535 6.68164 3.99316 6.68164 3.38379C6.68164 3.12598 6.61133 2.8916 6.4707 2.7041C6.6582 2.65723 6.86914 2.63379 7.08008 2.61035Z" fill="#D7B65D"/>
</svg>
