<svg width="14" height="19" viewBox="0 0 14 19" fill="none" xmlns="http://www.w3.org/2000/svg">
<path d="M6.225 18.4185C1.09219 11.0356 0.178125 10.2622 0.178125 7.52002C0.178125 3.79346 3.16641 0.77002 6.92812 0.77002C10.6547 0.77002 13.6781 3.79346 13.6781 7.52002C13.6781 10.2622 12.7289 11.0356 7.59609 18.4185C7.27969 18.9106 6.54141 18.9106 6.225 18.4185ZM6.92812 10.3325C8.475 10.3325 9.74062 9.10205 9.74062 7.52002C9.74062 5.97314 8.475 4.70752 6.92812 4.70752C5.34609 4.70752 4.11562 5.97314 4.11562 7.52002C4.11562 9.10205 5.34609 10.3325 6.92812 10.3325Z" fill="#D7B65D"/>
</svg>
