<svg width="18" height="18" viewBox="0 0 18 18" fill="none" xmlns="http://www.w3.org/2000/svg">
<path d="M8.87138 0.0512695C13.6878 0.0512695 17.5901 3.95361 17.5901 8.77002C17.5901 13.5864 13.6878 17.4888 8.87138 17.4888C4.05497 17.4888 0.152625 13.5864 0.152625 8.77002C0.152625 3.95361 4.05497 0.0512695 8.87138 0.0512695ZM8.87138 3.42627C7.14872 3.42627 5.77763 4.83252 5.77763 6.52002C5.77763 8.24268 7.14872 9.61377 8.87138 9.61377C10.5589 9.61377 11.9651 8.24268 11.9651 6.52002C11.9651 4.83252 10.5589 3.42627 8.87138 3.42627ZM8.87138 15.52C10.9104 15.52 12.7737 14.606 14.0042 13.1294C13.3362 11.8989 12.0354 11.02 10.5589 11.02C10.4534 11.02 10.3831 11.0552 10.2776 11.0903C9.85575 11.231 9.36356 11.3013 8.87138 11.3013C8.34403 11.3013 7.887 11.231 7.42997 11.0903C7.3245 11.0552 7.25419 11.02 7.18388 11.02C5.67216 11.02 4.37138 11.8989 3.70341 13.1294C4.93388 14.606 6.79716 15.52 8.87138 15.52Z" fill="#D7B65D"/>
</svg>
