<svg width="14" height="17" viewBox="0 0 14 17" fill="none" xmlns="http://www.w3.org/2000/svg">
<path d="M4.22168 16.8438C0.15918 12.8125 0.15918 6.21875 4.22168 2.1875C4.40918 2 4.65918 1.96875 4.87793 2.09375L6.90918 3.375C7.06543 3.46875 7.15918 3.625 7.15918 3.8125C7.15918 3.875 7.15918 3.96875 7.12793 4.03125L6.09668 6.5625C6.03418 6.75 5.84668 6.875 5.59668 6.875H5.56543L3.81543 6.71875C3.15918 8.53125 3.15918 10.5312 3.81543 12.3125L5.56543 12.1562H5.59668C5.84668 12.1562 6.03418 12.2812 6.09668 12.4688L7.12793 15C7.15918 15.0625 7.15918 15.1562 7.15918 15.2188C7.15918 15.4062 7.06543 15.5625 6.90918 15.6562L4.87793 16.9375C4.78418 17 4.69043 17 4.59668 17C4.44043 17 4.31543 16.9688 4.22168 16.8438ZM8.90918 4C9.25293 4.625 9.25293 5.40625 8.90918 6.03125C8.78418 6.25 8.50293 6.28125 8.31543 6.125L8.12793 5.9375C8.00293 5.8125 7.97168 5.625 8.06543 5.46875C8.12793 5.34375 8.15918 5.1875 8.15918 5.03125C8.15918 4.84375 8.12793 4.6875 8.06543 4.5625C7.97168 4.40625 8.00293 4.21875 8.12793 4.09375L8.31543 3.90625C8.50293 3.75 8.78418 3.78125 8.90918 4ZM11.7529 1.15625C13.6592 3.375 13.6592 6.65625 11.7529 8.875C11.6279 9.0625 11.3779 9.0625 11.2217 8.90625L11.0342 8.75C10.9092 8.59375 10.8779 8.375 11.0029 8.21875C12.5654 6.375 12.5654 3.65625 11.0029 1.8125C10.8779 1.65625 10.9092 1.4375 11.0342 1.28125L11.2217 1.125C11.3779 0.96875 11.6279 0.96875 11.7529 1.15625ZM10.3154 2.5625C11.4404 4 11.4717 6.03125 10.3154 7.46875C10.1904 7.65625 9.94043 7.6875 9.78418 7.53125L9.59668 7.34375C9.44043 7.21875 9.44043 7 9.53418 6.84375C10.3779 5.78125 10.3779 4.25 9.53418 3.1875C9.44043 3.03125 9.44043 2.8125 9.59668 2.6875L9.78418 2.5C9.94043 2.34375 10.1904 2.375 10.3154 2.5625Z" fill="white"/>
</svg>
