<svg width="23" height="23" viewBox="0 0 23 23" fill="none" xmlns="http://www.w3.org/2000/svg">
<path d="M22.1311 16.3047C22.4748 16.4766 22.7326 16.8633 22.7326 17.293C22.7326 17.3359 22.7326 17.4219 22.7326 17.5078L21.7014 21.9766C21.5725 22.4492 21.1858 22.75 20.7131 22.75C9.67014 22.75 0.775611 13.8555 0.775611 2.8125C0.775611 2.33984 1.07639 1.95312 1.54905 1.82422L6.0178 0.792969C6.10374 0.792969 6.18967 0.75 6.23264 0.75C6.66233 0.75 7.04905 1.00781 7.22092 1.39453L9.28342 6.20703C9.32639 6.33594 9.36936 6.46484 9.36936 6.59375C9.36936 6.9375 9.19749 7.23828 8.98264 7.41016L6.36155 9.55859C7.95139 12.9102 10.6155 15.5742 13.967 17.1641L16.1155 14.543C16.2873 14.3281 16.5881 14.1562 16.8889 14.1562C17.0608 14.1562 17.1897 14.1992 17.3186 14.2422L22.1311 16.3047Z" fill="#D7B65D"/>
</svg>
