<svg width="45" height="32" viewBox="0 0 45 32" fill="none" xmlns="http://www.w3.org/2000/svg">
<path d="M25.8056 31.3294H34.2556C34.7288 31.3294 35.1344 31.1829 35.4724 30.89C35.7654 30.6421 36.0696 30.2253 36.385 29.6394L44.835 3.00501C45.0378 2.21634 45.0153 1.55161 44.7674 1.01081C44.5196 0.470008 44.114 0.199608 43.5506 0.199608H32.0248C31.4615 0.199608 31.0221 0.340441 30.7066 0.622108C30.3912 0.903775 30.1208 1.37134 29.8954 2.02481L24.2846 28.6254C24.0593 29.4141 24.0875 30.0619 24.3691 30.5689C24.6508 31.0759 25.1296 31.3294 25.8056 31.3294ZM2.14564 31.3294H10.5956C11.0688 31.3294 11.4744 31.1829 11.8124 30.89C12.1054 30.6421 12.4096 30.2253 12.725 29.6394L21.175 3.00501C21.3778 2.21634 21.3553 1.55161 21.1074 1.01081C20.8596 0.470008 20.454 0.199608 19.8906 0.199608H8.22964C7.66631 0.199608 7.22691 0.340441 6.91144 0.622108C6.59598 0.903775 6.32558 1.37134 6.10024 2.02481L0.455644 28.6254C0.320444 29.4141 0.39931 30.0619 0.692244 30.5689C0.985177 31.0759 1.46964 31.3294 2.14564 31.3294Z" fill="#D7B65D"/>
</svg>
