<svg width="8" height="8" viewBox="0 0 8 8" fill="none" xmlns="http://www.w3.org/2000/svg">
<path d="M3.23877 1.04688L3.58252 0.703125C3.73877 0.5625 3.97314 0.5625 4.11377 0.703125L7.16064 3.73438C7.30127 3.89062 7.30127 4.125 7.16064 4.26562L4.11377 7.3125C3.97314 7.45312 3.73877 7.45312 3.58252 7.3125L3.23877 6.96875C3.09814 6.8125 3.09814 6.57812 3.23877 6.42188L5.12939 4.625H0.64502C0.42627 4.625 0.27002 4.46875 0.27002 4.25V3.75C0.27002 3.54688 0.42627 3.375 0.64502 3.375H5.12939L3.23877 1.59375C3.09814 1.4375 3.08252 1.20312 3.23877 1.04688Z" fill="#D7B65D"/>
</svg>
