<svg width="21" height="21" viewBox="0 0 21 21" fill="none" xmlns="http://www.w3.org/2000/svg">
<path d="M18.23 17.75L17.07 4.77C17.0567 4.63667 17.0033 4.53 16.91 4.45C16.8167 4.37 16.7033 4.33 16.57 4.33H14.15C14.15 3.62334 13.9733 2.97 13.62 2.37C13.2667 1.77 12.79 1.29334 12.19 0.940004C11.59 0.58667 10.9367 0.410004 10.23 0.410004C9.52333 0.410004 8.87 0.58667 8.27 0.940004C7.67 1.29334 7.19333 1.77 6.84 2.37C6.48667 2.97 6.31 3.62334 6.31 4.33H3.89C3.75667 4.33 3.64333 4.37 3.55 4.45C3.45667 4.53 3.40333 4.63667 3.39 4.77L2.25 17.79C2.25 18.2567 2.38333 18.6933 2.65 19.1C2.91667 19.5067 3.27667 19.8267 3.73 20.06C4.18333 20.2933 4.67667 20.41 5.21 20.41H15.27C15.8033 20.41 16.2967 20.2933 16.75 20.06C17.2033 19.8267 17.5633 19.5067 17.83 19.1C18.0967 18.6933 18.23 18.2567 18.23 17.79V17.75ZM10.23 1.41C10.7633 1.41 11.2533 1.54 11.7 1.8C12.1467 2.06 12.5 2.41334 12.76 2.86C13.02 3.30667 13.15 3.79667 13.15 4.33H7.31C7.31 3.79667 7.44 3.30667 7.7 2.86C7.96 2.41334 8.31667 2.06 8.77 1.8C9.22333 1.54 9.71 1.41 10.23 1.41ZM15.27 19.41H5.21C4.67667 19.41 4.21667 19.2533 3.83 18.94C3.44333 18.6267 3.24333 18.25 3.23 17.81L4.35 5.31H6.31V7.05C6.31 7.18334 6.36 7.3 6.46 7.4C6.56 7.5 6.68 7.55 6.82 7.55C6.96 7.55 7.07667 7.5 7.17 7.4C7.26333 7.3 7.31 7.18334 7.31 7.05V5.31H13.15V7.05C13.15 7.18334 13.2 7.3 13.3 7.4C13.4 7.5 13.52 7.55 13.66 7.55C13.8 7.55 13.9167 7.5 14.01 7.4C14.1033 7.3 14.15 7.18334 14.15 7.05V5.31H16.11L17.23 17.81C17.2167 18.25 17.02 18.6267 16.64 18.94C16.26 19.2533 15.8033 19.41 15.27 19.41ZM12.29 10.75L9.37 13.69L8.17 12.49C8.07667 12.3833 7.96333 12.33 7.83 12.33C7.69667 12.33 7.58 12.38 7.48 12.48C7.38 12.58 7.33 12.6967 7.33 12.83C7.33 12.9633 7.37667 13.0833 7.47 13.19L9.01 14.73C9.11667 14.8367 9.23333 14.89 9.36 14.89C9.48667 14.89 9.60333 14.8367 9.71 14.73L13.01 11.45C13.1033 11.3433 13.15 11.2233 13.15 11.09C13.15 10.9567 13.1033 10.8433 13.01 10.75C12.9167 10.6567 12.8 10.61 12.66 10.61C12.52 10.61 12.3967 10.6567 12.29 10.75Z" fill="white"/>
</svg>
