<svg width="21" height="19" viewBox="0 0 21 19" fill="none" xmlns="http://www.w3.org/2000/svg">
<path d="M19.31 14.43C19.0167 13.91 18.61 13.4033 18.09 12.91C17.7034 12.55 17.2834 12.21 16.83 11.89C16.4967 11.6767 16.29 11.5567 16.21 11.53L13.47 9.89001C14.15 9.38334 14.6867 8.74334 15.08 7.97001C15.4734 7.19668 15.67 6.38334 15.67 5.53001C15.67 4.55668 15.4267 3.65335 14.94 2.82001C14.4534 1.98668 13.7967 1.32335 12.97 0.830011C12.13 0.336678 11.2234 0.0900116 10.25 0.0900116C9.27671 0.0900116 8.36337 0.336678 7.51004 0.830011C6.69671 1.32335 6.04337 1.97668 5.55004 2.79001C5.05671 3.64334 4.81004 4.55668 4.81004 5.53001C4.81004 6.38334 5.00671 7.19668 5.40004 7.97001C5.79337 8.74334 6.33004 9.38334 7.01004 9.89001L4.29004 11.51C4.14337 11.5767 3.93671 11.7033 3.67004 11.89C3.20337 12.21 2.77671 12.5433 2.39004 12.89C1.85671 13.3967 1.44337 13.9133 1.15004 14.44C0.856708 14.9667 0.630041 15.5633 0.470041 16.23C0.310042 16.8967 0.230042 17.59 0.230042 18.31V18.73H20.23V18.31C20.23 17.59 20.15 16.8967 19.99 16.23C19.83 15.5633 19.6034 14.9633 19.31 14.43ZM10.25 17.91H1.09004C1.13004 16.7233 1.39671 15.6967 1.89004 14.83C2.39671 13.9233 3.31004 13.07 4.63004 12.27L8.61004 9.89001L7.99004 9.55001C7.27004 9.13668 6.70004 8.57001 6.28004 7.85001C5.86004 7.13001 5.65004 6.35668 5.65004 5.53001C5.65004 4.70334 5.85671 3.93668 6.27004 3.23001C6.68337 2.52334 7.24337 1.96334 7.95004 1.55001C8.65671 1.13668 9.42338 0.930012 10.25 0.930012C11.0767 0.930012 11.84 1.13668 12.54 1.55001C13.24 1.96334 13.7967 2.52334 14.21 3.23001C14.6234 3.93668 14.83 4.70334 14.83 5.53001C14.83 6.35668 14.62 7.13001 14.2 7.85001C13.78 8.57001 13.21 9.13668 12.49 9.55001L11.87 9.89001L15.83 12.27C16.2567 12.5233 16.6567 12.7967 17.03 13.09C17.7367 13.65 18.2567 14.23 18.59 14.83C19.0834 15.7367 19.35 16.7633 19.39 17.91H10.25Z" fill="white"/>
</svg>
