<svg width="23" height="17" viewBox="0 0 23 17" fill="none" xmlns="http://www.w3.org/2000/svg">
<path d="M6.91719 8.27002C4.7375 8.27002 2.97969 6.51221 2.97969 4.33252C2.97969 2.18799 4.7375 0.39502 6.91719 0.39502C9.06172 0.39502 10.8547 2.18799 10.8547 4.33252C10.8547 6.51221 9.06172 8.27002 6.91719 8.27002ZM9.58906 9.39502C11.8391 9.39502 13.6672 11.2231 13.6672 13.4731V14.4575C13.6672 15.4067 12.8938 16.145 11.9797 16.145H1.85469C0.905469 16.145 0.167188 15.4067 0.167188 14.4575V13.4731C0.167188 11.2231 1.96016 9.39502 4.21016 9.39502H4.49141C5.22969 9.74658 6.03828 9.95752 6.91719 9.95752C7.76094 9.95752 8.56953 9.74658 9.30781 9.39502H9.58906ZM17.0422 8.27002C15.1789 8.27002 13.6672 6.7583 13.6672 4.89502C13.6672 3.03174 15.1789 1.52002 17.0422 1.52002C18.9055 1.52002 20.4172 3.03174 20.4172 4.89502C20.4172 6.7583 18.9055 8.27002 17.0422 8.27002ZM18.7297 9.39502C20.8742 9.39502 22.6672 11.188 22.6672 13.3325C22.6672 14.2817 21.8938 15.02 20.9797 15.02H14.757C14.757 14.9497 14.7922 14.8794 14.7922 14.8091V13.4731C14.7922 12.1021 14.2297 10.8716 13.3859 9.95752C13.9484 9.60596 14.6164 9.39502 15.3547 9.39502H15.4602C15.9523 9.5708 16.4797 9.67627 17.0422 9.67627C17.5695 9.67627 18.0969 9.5708 18.5891 9.39502H18.7297Z" fill="#D7B65D"/>
</svg>
