<svg width="41" height="41" viewBox="0 0 41 41" fill="none" xmlns="http://www.w3.org/2000/svg">
<path d="M29.19 23.93C28.2567 23.8233 27.2967 23.5967 26.31 23.25C25.8034 23.0367 25.2767 22.99 24.73 23.11C24.1834 23.23 23.7234 23.4767 23.35 23.85L22.35 24.85C20.0834 23.4633 18.2567 21.6367 16.87 19.37L17.87 18.37C18.2434 17.9967 18.4834 17.5367 18.59 16.99C18.6967 16.4433 18.6567 15.9167 18.47 15.41C18.1234 14.45 17.8967 13.5033 17.79 12.57C17.6834 11.8767 17.3634 11.29 16.83 10.81C16.2967 10.33 15.67 10.1033 14.95 10.13H11.75C11.6434 10.13 11.5634 10.1433 11.51 10.17C10.7367 10.2233 10.0967 10.5567 9.59002 11.17C9.08335 11.7833 8.87002 12.4633 8.95002 13.21C9.13669 14.9167 9.51669 16.5833 10.09 18.21C10.6634 19.8367 11.4167 21.3567 12.35 22.77C14.0567 25.49 16.27 27.7033 18.99 29.41C21.8434 31.2767 25.03 32.41 28.55 32.81H28.79C29.6167 32.81 30.29 32.5367 30.81 31.99C31.33 31.4433 31.59 30.7833 31.59 30.01V26.77C31.6167 26.0767 31.3967 25.4567 30.93 24.91C30.4634 24.3633 29.8834 24.0367 29.19 23.93ZM30.27 26.77V30.01C30.27 30.41 30.1234 30.7567 29.83 31.05C29.5367 31.3433 29.19 31.49 28.79 31.49C28.7367 31.49 28.6967 31.4767 28.67 31.45C27.0967 31.29 25.55 30.9367 24.03 30.39C22.51 29.8433 21.07 29.1433 19.71 28.29C17.1767 26.6633 15.0967 24.5833 13.47 22.05C11.71 19.3833 10.6434 16.3967 10.27 13.09C10.2167 12.6633 10.3367 12.3033 10.63 12.01C10.87 11.7167 11.2034 11.5433 11.63 11.49H14.99C15.3634 11.49 15.69 11.61 15.97 11.85C16.25 12.09 16.4167 12.3833 16.47 12.73C16.5767 13.7433 16.83 14.7967 17.23 15.89C17.3367 16.1833 17.3567 16.47 17.29 16.75C17.2234 17.03 17.0967 17.2633 16.91 17.45L15.55 18.81C15.4434 18.9167 15.3834 19.0433 15.37 19.19C15.3567 19.3367 15.3767 19.4767 15.43 19.61C17.03 22.41 19.2567 24.6367 22.11 26.29C22.2434 26.3433 22.3834 26.3633 22.53 26.35C22.6767 26.3367 22.8034 26.2767 22.91 26.17L24.27 24.81C24.4834 24.6233 24.73 24.4967 25.01 24.43C25.29 24.3633 25.5634 24.3833 25.83 24.49C26.9767 24.89 28.03 25.1433 28.99 25.25C29.3634 25.3033 29.6767 25.4767 29.93 25.77C30.1834 26.0633 30.2967 26.3967 30.27 26.77ZM20.27 0.809998C16.6434 0.809998 13.2834 1.71666 10.19 3.53C7.17669 5.31667 4.77669 7.71666 2.99002 10.73C1.17669 13.8233 0.27002 17.1833 0.27002 20.81C0.27002 22.7033 0.536686 24.5633 1.07002 26.39C1.60335 28.2167 2.37669 29.93 3.39002 31.53L0.31002 39.93C0.23002 40.1967 0.283353 40.4233 0.47002 40.61C0.603353 40.7433 0.763353 40.81 0.95002 40.81C1.03002 40.81 1.09669 40.7967 1.15002 40.77L9.83002 37.89C11.4034 38.85 13.0767 39.5767 14.85 40.07C16.6234 40.5633 18.43 40.81 20.27 40.81C23.8967 40.81 27.2567 39.9033 30.35 38.09C33.3634 36.3033 35.7634 33.9033 37.55 30.89C39.3634 27.7967 40.27 24.4367 40.27 20.81C40.27 17.1833 39.3634 13.8233 37.55 10.73C35.7634 7.71666 33.3634 5.31667 30.35 3.53C27.2567 1.71666 23.8967 0.809998 20.27 0.809998ZM20.27 39.49C18.51 39.49 16.7767 39.2433 15.07 38.75C13.3634 38.2567 11.7767 37.53 10.31 36.57C10.15 36.5167 10.0234 36.49 9.93002 36.49C9.83669 36.49 9.76335 36.5033 9.71002 36.53L2.03002 39.09L4.75002 31.69C4.83002 31.4767 4.80335 31.2767 4.67002 31.09C2.61669 27.9167 1.59002 24.49 1.59002 20.81C1.59002 17.45 2.44335 14.3167 4.15002 11.41C5.80335 8.58333 8.04335 6.34333 10.87 4.69C13.7767 2.98333 16.91 2.13 20.27 2.13C23.63 2.13 26.7634 2.98333 29.67 4.69C32.4967 6.34333 34.7367 8.58333 36.39 11.41C38.0967 14.3167 38.95 17.45 38.95 20.81C38.95 24.17 38.0967 27.3033 36.39 30.21C34.7367 33.0367 32.4967 35.2767 29.67 36.93C26.7634 38.6367 23.63 39.49 20.27 39.49Z" fill="#D7B65D"/>
</svg>
