<svg width="28" height="28" viewBox="0 0 28 28" fill="none" xmlns="http://www.w3.org/2000/svg">
<g clip-path="url(#clip0_160_453)">
<g clip-path="url(#clip1_160_453)">
<g clip-path="url(#clip2_160_453)">
<path d="M27.2546 10.1552H27.1221V6.04653C27.1221 5.49317 26.6719 5.043 26.1185 5.043H24.4454C24.3676 4.59282 23.9753 4.24902 23.5033 4.24902H20.3823C19.9103 4.24902 19.5179 4.59282 19.4401 5.043H10.3021C10.0616 5.043 9.86664 5.23798 9.86664 5.47848V7.88311H9.03353V6.60453C9.03353 6.36402 8.83855 6.16904 8.59804 6.16904H2.82962C2.58912 6.16904 2.39414 6.36402 2.39414 6.60453V7.88311H2.26164C1.70828 7.88311 1.25811 8.33328 1.25811 8.88664V10.1552H1.12555C0.885044 10.1552 0.690063 10.3502 0.690063 10.5907C0.690063 10.8312 0.885044 11.0262 1.12555 11.0262H1.25811V23.0872C1.25811 23.6405 1.70828 24.0907 2.26164 24.0907H26.1185C26.6719 24.0907 27.1221 23.6405 27.1221 23.0872V11.0262H27.2546C27.4951 11.0262 27.6901 10.8312 27.6901 10.5907C27.6901 10.3502 27.4951 10.1552 27.2546 10.1552ZM20.2961 5.20616C20.2961 5.15866 20.3347 5.11999 20.3822 5.11999H23.5032C23.5507 5.11999 23.5893 5.15866 23.5893 5.20616V8.32713C23.5893 8.37462 23.5507 8.41329 23.5032 8.41329H20.3822C20.3347 8.41329 20.2961 8.37462 20.2961 8.32713V5.20616ZM3.26511 7.04001H8.16262V7.88311H3.26511V7.04001ZM2.12908 8.88664C2.12908 8.81481 2.18975 8.75407 2.26164 8.75407H10.3022C10.5427 8.75407 10.7377 8.55909 10.7377 8.31859V5.91397H19.4252V8.32713C19.4252 8.85488 19.8545 9.28426 20.3822 9.28426H23.5032C24.031 9.28426 24.4603 8.85488 24.4603 8.32713V5.91397H26.1185C26.1903 5.91397 26.2511 5.97464 26.2511 6.04653V10.1552H2.12908V8.88664ZM26.1185 23.2197H2.26158C2.18975 23.2197 2.12902 23.1591 2.12902 23.0872V22.3866H5.10169C5.34219 22.3866 5.53717 22.1917 5.53717 21.9512C5.53717 21.7106 5.34219 21.5157 5.10169 21.5157H2.12908V11.0262H12.7518C10.9719 12.0966 9.77844 14.0469 9.77844 16.2709C9.77844 18.4949 10.9719 20.4452 12.7518 21.5157H6.84368C6.60318 21.5157 6.4082 21.7106 6.4082 21.9512C6.4082 22.1917 6.60318 22.3866 6.84368 22.3866H26.2511V23.0872C26.2511 23.159 26.1904 23.2197 26.1185 23.2197ZM15.8941 11.0262C18.7861 11.0262 21.1389 13.379 21.1389 16.2709C21.1389 19.1629 18.786 21.5157 15.8941 21.5157C13.0022 21.5157 10.6494 19.1629 10.6494 16.2709C10.6494 13.379 13.0022 11.0262 15.8941 11.0262ZM26.2511 21.5157H19.0365C20.8164 20.4452 22.0098 18.4949 22.0098 16.2709C22.0098 14.0469 20.8164 12.0967 19.0365 11.0262H26.2511V21.5157Z" fill="#D7B65D"/>
<path d="M23.2784 17.3691C23.0378 17.3691 22.8429 17.5641 22.8429 17.8046C22.8429 18.0451 23.0378 18.24 23.2784 18.24C23.9396 18.24 24.4775 17.7021 24.4775 17.0409V15.5009C24.4775 14.8397 23.9396 14.3018 23.2784 14.3018C23.0378 14.3018 22.8429 14.4967 22.8429 14.7372C22.8429 14.9777 23.0378 15.1727 23.2784 15.1727C23.4594 15.1727 23.6066 15.32 23.6066 15.5009V17.0409C23.6066 17.2218 23.4594 17.3691 23.2784 17.3691Z" fill="#D7B65D"/>
<path d="M15.8942 20.6827C18.3268 20.6827 20.3059 18.7036 20.3059 16.271C20.3059 13.8384 18.3268 11.8594 15.8942 11.8594C13.4616 11.8594 11.4825 13.8384 11.4825 16.271C11.4825 18.7036 13.4616 20.6827 15.8942 20.6827ZM15.8942 12.7304C17.8465 12.7304 19.4349 14.3187 19.4349 16.2711C19.4349 18.2234 17.8466 19.8118 15.8942 19.8118C13.9418 19.8118 12.3535 18.2234 12.3535 16.2711C12.3535 14.3187 13.9418 12.7304 15.8942 12.7304Z" fill="#D7B65D"/>
<path d="M15.8941 18.9407C17.3662 18.9407 18.5638 17.743 18.5638 16.2709C18.5638 16.0304 18.3689 15.8354 18.1284 15.8354C17.8878 15.8354 17.6929 16.0304 17.6929 16.2709C17.6929 17.2628 16.886 18.0697 15.8941 18.0697C15.6535 18.0697 15.4586 18.2647 15.4586 18.5052C15.4586 18.7457 15.6535 18.9407 15.8941 18.9407Z" fill="#D7B65D"/>
</g>
</g>
</g>
<defs>
<clipPath id="clip0_160_453">
<rect width="27" height="27" fill="white" transform="translate(0.690063 0.669922)"/>
</clipPath>
<clipPath id="clip1_160_453">
<rect width="27" height="27" fill="white" transform="translate(0.690063 0.669922)"/>
</clipPath>
<clipPath id="clip2_160_453">
<rect width="27" height="27" fill="white" transform="translate(0.690063 0.669922)"/>
</clipPath>
</defs>
</svg>
