<svg width="28" height="28" viewBox="0 0 28 28" fill="none" xmlns="http://www.w3.org/2000/svg">
<g id="man-person.svg">
<path id="Vector" d="M20.4245 16.1943L18.0704 15.8779C17.9246 15.6129 17.7231 15.3826 17.4799 15.2028C17.2367 15.0229 16.9575 14.8978 16.6614 14.8359V14.0386C17.2477 13.6556 17.7399 13.1452 18.1015 12.5455C18.4631 11.9458 18.6846 11.2722 18.7497 10.575H18.7708C19.1416 10.5763 19.5025 10.455 19.7973 10.2298C20.092 10.0047 20.3041 9.68843 20.4003 9.33026C20.4966 8.97209 20.4718 8.59215 20.3296 8.24954C20.1875 7.90698 19.9361 7.62103 19.6145 7.43621V4.24685C19.6136 3.46391 19.3022 2.71329 18.7486 2.15966C18.1949 1.60604 17.4443 1.29462 16.6614 1.29373C16.022 1.29101 15.3994 1.49854 14.8895 1.88435L14.1301 2.45388C13.9572 2.31888 13.7125 2.13748 13.3708 1.88435C12.9317 1.55628 12.4102 1.35672 11.8643 1.30797C11.3185 1.25922 10.7698 1.36319 10.2796 1.60829C9.78941 1.85338 9.37703 2.22993 9.08851 2.69588C8.79999 3.16182 8.64668 3.69881 8.64575 4.24685V7.43621C8.32454 7.62124 8.07344 7.90723 7.93152 8.24971C7.78964 8.59219 7.76488 8.97192 7.86111 9.32992C7.95734 9.68793 8.1692 10.0041 8.46367 10.2292C8.75818 10.4544 9.1188 10.576 9.4895 10.575H9.5106C9.57561 11.2722 9.79713 11.9458 10.1587 12.5455C10.5203 13.1452 11.0126 13.6556 11.5989 14.0386V14.8359C11.3028 14.8978 11.0236 15.0229 10.7804 15.2028C10.5371 15.3826 10.3357 15.6129 10.1898 15.8779L7.83575 16.1943C7.12662 16.2884 6.47575 16.6365 6.00401 17.1743C5.53223 17.712 5.27168 18.4026 5.27075 19.1179V26.1843C5.27075 26.2963 5.31522 26.4035 5.39432 26.4826C5.47342 26.5618 5.58075 26.6062 5.69263 26.6062H22.5676C22.6795 26.6062 22.7868 26.5618 22.8659 26.4826C22.945 26.4035 22.9895 26.2963 22.9895 26.1843V19.1179C22.9886 18.4026 22.728 17.712 22.2562 17.1743C21.7845 16.6365 21.1336 16.2884 20.4245 16.1943ZM11.5989 25.7625H9.4895V20.7H8.64575V25.7625H6.1145V19.1179C6.11513 18.6072 6.3011 18.114 6.6378 17.73C6.97454 17.3459 7.43915 17.0971 7.94544 17.0296L9.92403 16.7639C9.92403 16.8103 9.91138 16.8567 9.91138 16.9031V19.0125C9.91138 19.1244 9.95584 19.2317 10.0349 19.3108C10.114 19.3899 10.2214 19.4343 10.3333 19.4343C10.4451 19.4343 10.5525 19.3899 10.6316 19.3108C10.7107 19.2317 10.7551 19.1244 10.7551 19.0125C10.7551 18.9006 10.7996 18.7933 10.8787 18.7142C10.9578 18.6351 11.0651 18.5906 11.177 18.5906C11.2889 18.5906 11.3962 18.6351 11.4753 18.7142C11.5544 18.7933 11.5989 18.9006 11.5989 19.0125V25.7625ZM11.5989 17.8186C11.3258 17.723 11.0282 17.723 10.7551 17.8186V16.9031C10.7558 16.6415 10.8373 16.3864 10.9883 16.1728C11.1392 15.9591 11.3525 15.7972 11.5989 15.7092V17.8186ZM17.5051 16.9031V17.8186C17.232 17.723 16.9345 17.723 16.6614 17.8186V15.7092C16.9078 15.7972 17.121 15.9591 17.272 16.1728C17.423 16.3864 17.5044 16.6415 17.5051 16.9031ZM19.6145 8.88746C19.6129 9.11076 19.5234 9.3244 19.3656 9.48226C19.2076 9.64013 18.994 9.72957 18.7708 9.73121V8.04371C18.9943 8.04439 19.2085 8.13349 19.3666 8.2916C19.5247 8.44968 19.6138 8.66391 19.6145 8.88746ZM9.4895 9.73121C9.26625 9.72957 9.05257 9.64013 8.8947 9.48226C8.73683 9.3244 8.6474 9.11076 8.64575 8.88746C8.64643 8.66391 8.73553 8.44968 8.8936 8.2916C9.05172 8.13349 9.26595 8.04439 9.4895 8.04371V9.73121ZM9.4895 7.19996V4.24685C9.4895 3.85512 9.5986 3.47112 9.80452 3.13789C10.0105 2.80466 10.3052 2.53536 10.6555 2.36017C11.0059 2.18498 11.3981 2.11082 11.7883 2.146C12.1784 2.18118 12.5511 2.32431 12.8645 2.55935C13.2906 2.87576 13.7758 3.23857 13.8559 3.30185C13.8813 3.32397 13.9097 3.34243 13.9403 3.3567C14.0103 3.39223 14.0889 3.40751 14.1672 3.4008C14.2454 3.39409 14.3203 3.36567 14.3833 3.31873L15.3958 2.55935C15.7091 2.32431 16.0818 2.18118 16.472 2.146C16.8621 2.11082 17.2543 2.18498 17.6047 2.36017C17.9551 2.53536 18.2498 2.80466 18.4557 3.13789C18.6617 3.47112 18.7708 3.85512 18.7708 4.24685V7.19996H18.3489C18.0135 7.19899 17.6922 7.0653 17.4551 6.82816C17.2179 6.59103 17.0843 6.26973 17.0833 5.93434V5.61371C17.0834 5.48225 17.0526 5.35261 16.9932 5.23533C16.9338 5.11805 16.8476 5.01642 16.7415 4.93871C16.633 4.8594 16.5072 4.80692 16.3745 4.78565C16.2417 4.76439 16.1058 4.7749 15.9779 4.81637C14.7722 5.175 13.4881 5.175 12.2823 4.81637C12.1544 4.7749 12.0185 4.76439 11.8858 4.78565C11.753 4.80692 11.6272 4.8594 11.5187 4.93871C11.4127 5.01642 11.3264 5.11805 11.2671 5.23533C11.2077 5.35261 11.1768 5.48225 11.177 5.61371V5.93434C11.176 6.26973 11.0423 6.59103 10.8052 6.82816C10.5681 7.0653 10.2467 7.19899 9.91138 7.19996H9.4895ZM10.3333 10.1531V8.00152C10.8094 7.90361 11.2372 7.64457 11.5446 7.26801C11.852 6.89144 12.0201 6.42042 12.0208 5.93434L12.025 5.61793C13.3992 6.03424 14.8661 6.03276 16.2395 5.61371V5.93434C16.2401 6.42042 16.4083 6.89144 16.7157 7.26801C17.0231 7.64457 17.4509 7.90361 17.927 8.00152V10.1531C17.927 11.1601 17.527 12.1259 16.8149 12.8379C16.1029 13.5499 15.1371 13.95 14.1301 13.95C13.1232 13.95 12.1574 13.5499 11.4453 12.8379C10.7333 12.1259 10.3333 11.1601 10.3333 10.1531ZM15.8176 25.7625H12.4426V17.6329C13.526 18.0661 14.7343 18.0661 15.8176 17.6329V25.7625ZM15.8176 16.7048C15.2937 16.967 14.7159 17.1035 14.1301 17.1035C13.5443 17.1035 12.9665 16.967 12.4426 16.7048V14.4731C13.527 14.9006 14.7332 14.9006 15.8176 14.4731V16.7048ZM22.1458 25.7625H19.6145V20.7H18.7708V25.7625H16.6614V19.0125C16.6614 18.9006 16.7058 18.7933 16.7849 18.7142C16.864 18.6351 16.9714 18.5906 17.0833 18.5906C17.1951 18.5906 17.3025 18.6351 17.3816 18.7142C17.4607 18.7933 17.5051 18.9006 17.5051 19.0125C17.5051 19.1244 17.5496 19.2317 17.6287 19.3108C17.7078 19.3899 17.8151 19.4343 17.927 19.4343C18.0389 19.4343 18.1462 19.3899 18.2253 19.3108C18.3044 19.2317 18.3489 19.1244 18.3489 19.0125V16.9031C18.3489 16.8567 18.3362 16.8103 18.3362 16.7639L20.3148 17.0296C20.8211 17.0971 21.2857 17.3459 21.6225 17.73C21.9592 18.114 22.1451 18.6072 22.1458 19.1179V25.7625Z" fill="#D7B65D"/>
<path id="Vector_2" d="M12.8645 9.30933H13.7083C13.7083 8.97368 13.5749 8.65175 13.3376 8.4144C13.1002 8.17706 12.7783 8.0437 12.4426 8.0437C12.107 8.0437 11.7851 8.17706 11.5477 8.4144C11.3104 8.65175 11.177 8.97368 11.177 9.30933H12.0208C12.0208 9.19744 12.0652 9.09012 12.1443 9.01102C12.2234 8.93192 12.3307 8.88745 12.4426 8.88745C12.5545 8.88745 12.6618 8.93192 12.7409 9.01102C12.82 9.09012 12.8645 9.19744 12.8645 9.30933Z" fill="#D7B65D"/>
<path id="Vector_3" d="M15.8176 8.88745C15.9295 8.88745 16.0368 8.93192 16.1159 9.01102C16.195 9.09012 16.2395 9.19744 16.2395 9.30933H17.0833C17.0833 8.97368 16.9499 8.65175 16.7126 8.4144C16.4752 8.17706 16.1533 8.0437 15.8176 8.0437C15.482 8.0437 15.1601 8.17706 14.9227 8.4144C14.6854 8.65175 14.552 8.97368 14.552 9.30933H15.3958C15.3958 9.19744 15.4402 9.09012 15.5193 9.01102C15.5984 8.93192 15.7057 8.88745 15.8176 8.88745Z" fill="#D7B65D"/>
<path id="Vector_4" d="M15.9574 11.6296L15.2267 11.2078C15.1157 11.4006 14.9559 11.5607 14.7633 11.672C14.5708 11.7834 14.3523 11.842 14.1298 11.842C13.9074 11.842 13.6889 11.7834 13.4963 11.672C13.3037 11.5607 13.1439 11.4006 13.0329 11.2078L12.3022 11.6296C12.4873 11.9505 12.7537 12.2169 13.0744 12.4022C13.3951 12.5874 13.759 12.685 14.1294 12.685C14.4998 12.685 14.8637 12.5874 15.1844 12.4022C15.5051 12.2169 15.7715 11.9505 15.9565 11.6296H15.9574Z" fill="#D7B65D"/>
</g>
</svg>
