<svg width="28" height="28" viewBox="0 0 28 28" fill="none" xmlns="http://www.w3.org/2000/svg">
<g id="safety-seat-car-svgrepo-com.svg" clip-path="url(#clip0_160_42)">
<g id="Group">
<g id="Group_2">
<g id="Group_3">
<path id="Vector" d="M7.45768 17.8649C7.6827 18.9898 8.67268 19.7998 9.79767 19.7998C9.97765 19.7998 10.1577 19.7549 10.2927 19.7549C11.5977 19.4849 12.8577 19.3499 14.0277 19.3499C15.1977 19.3499 16.4577 19.4849 17.7177 19.7549C19.0227 20.0249 20.2827 19.1699 20.5527 17.8649C20.5977 17.7299 20.5977 17.5499 20.6427 17.4149C20.6877 17.0549 20.6877 16.6499 20.5977 16.2899L19.2927 10.6649C19.0677 9.76487 18.3927 9.08987 17.5377 8.8649C16.9527 8.68492 15.8727 8.50488 14.4327 8.50488C14.2527 8.50488 14.1177 8.50488 14.1177 8.50488H14.0277H13.8927C13.8927 8.50488 13.7577 8.50488 13.5777 8.50488C12.1377 8.50488 11.1027 8.68487 10.4727 8.8649C9.5727 9.08992 8.94274 9.8099 8.71772 10.6649L7.4127 16.2899C7.32268 16.6949 7.32268 17.0549 7.36772 17.4149C7.41265 17.5949 7.41265 17.7299 7.45768 17.8649ZM8.31267 16.5149L9.61769 10.8898C9.75269 10.3498 10.1577 9.89987 10.6977 9.76487C11.2377 9.62987 12.2277 9.44988 13.5777 9.44988C13.7576 9.44988 13.8477 9.44988 13.8926 9.44988H14.0276H14.2076C14.2076 9.44988 14.3426 9.44988 14.4776 9.44988C15.8276 9.44988 16.7726 9.62987 17.4026 9.76487C17.9426 9.89987 18.3476 10.3498 18.4826 10.8898L19.7877 16.5149C19.8777 16.7849 19.8777 17.0099 19.8326 17.2799C19.7877 17.4149 19.7877 17.5499 19.7426 17.6849C19.5726 18.4498 18.8408 18.9737 18.0776 18.8779V17.5499C18.0776 17.2799 17.8977 17.0999 17.6277 17.0999C17.3577 17.0999 17.1777 17.2799 17.1777 17.5499V18.7156C16.8754 18.666 16.5754 18.6237 16.2777 18.588V17.0999C16.2777 16.8299 16.0977 16.6499 15.8277 16.6499C15.5577 16.6499 15.3777 16.8299 15.3777 17.0999V18.5006C15.0753 18.4783 14.7752 18.4632 14.4777 18.4558V16.6499C14.4777 16.3799 14.2977 16.1999 14.0277 16.1999C13.7577 16.1999 13.5777 16.3799 13.5777 16.6499V18.4557C13.2797 18.4632 12.9795 18.4784 12.6777 18.5007V17.0998C12.6777 16.8298 12.4977 16.6499 12.2277 16.6499C11.9577 16.6499 11.7777 16.8298 11.7777 17.0998V18.589C11.4785 18.6255 11.1784 18.6688 10.8777 18.7196V17.5499C10.8777 17.2799 10.6977 17.0999 10.4277 17.0999C10.1577 17.0999 9.97775 17.2799 9.97775 17.5499V18.8821C9.19744 18.9567 8.52503 18.4376 8.35775 17.6849C8.31277 17.5499 8.26774 17.4149 8.26774 17.2799C8.22265 17.0549 8.26768 16.7849 8.31267 16.5149Z" fill="#D7B65D"/>
<path id="Vector_2" d="M25.3226 22.9049C25.3226 22.1399 25.0526 21.4649 24.5576 21.0149C23.999 20.4892 23.2249 20.2995 22.7074 20.2354C22.9797 19.5521 23.1925 18.7453 23.3426 17.8199C23.4326 17.0999 23.4326 16.3799 23.2526 15.6599L21.6326 8.86493C21.125 7.25416 19.3409 6.49843 17.6275 6.14621V4.94993H18.8875C19.3825 4.94993 19.8325 4.72492 20.0125 4.36495C20.2825 3.95995 20.3725 3.46493 20.1925 3.01495L19.6075 1.39495C19.3826 0.809969 18.8426 0.449951 18.2576 0.449951H9.75261C9.16762 0.449951 8.62762 0.809969 8.40261 1.34997L7.81762 2.96997C7.68262 3.41995 7.72761 3.91497 7.99761 4.31997C8.26761 4.72497 8.67261 4.94999 9.16762 4.94999H10.4276V6.144C8.69681 6.49837 6.88902 7.26455 6.37761 8.90997L4.80259 15.66C4.62261 16.38 4.57757 17.1 4.71257 17.82C4.86597 18.7661 5.08498 19.5884 5.36611 20.2813C4.84441 20.3463 4.09853 20.5367 3.54255 21.06C3.04759 21.5549 2.77759 22.185 2.77759 22.995C2.77759 23.0387 3.07591 27.2071 8.17759 27.4394V27.45H8.62757H9.07755H18.9776H19.4276H19.8776V27.4394C24.9793 27.207 25.2789 23.0362 25.3226 22.9049ZM8.71759 3.82495C8.62757 3.68995 8.62757 3.50997 8.67261 3.32993L9.25759 1.70993C9.30257 1.48492 9.52759 1.34992 9.75261 1.34992H18.3026C18.5276 1.34992 18.7076 1.48492 18.7976 1.70993L19.3826 3.32993C19.4726 3.50992 19.4276 3.68995 19.3376 3.82495C19.2476 3.95995 19.0676 4.04997 18.8876 4.04997H9.16762C8.98759 4.04997 8.80761 3.95995 8.71759 3.82495ZM11.3276 4.94993H16.7276V5.99376C15.3099 5.80175 14.1226 5.8499 14.0276 5.8499C13.9145 5.8499 12.7355 5.8027 11.3276 5.99228V4.94993ZM5.70261 15.8849L7.27762 9.13493C7.90764 7.15492 11.6426 6.74992 13.5776 6.74992C13.7576 6.74992 13.8926 6.74992 14.0276 6.74992C15.6926 6.6599 20.1026 6.9299 20.7776 9.0899L22.4426 15.8849C22.6226 16.4699 22.6226 17.0999 22.5326 17.6849C22.4184 18.3702 22.2236 19.2488 21.887 20.0379L21.8576 20.0249L21.6326 20.4299C21.0748 21.4597 20.394 21.9982 19.5517 22.046C19.0438 21.8628 16.8193 21.1706 14.1869 21.1508C14.169 21.1506 14.151 21.1505 14.1329 21.1504C14.1128 21.1503 14.0928 21.1499 14.0726 21.1499C14.0671 21.1499 14.0616 21.15 14.056 21.1501C14.0466 21.1501 14.0371 21.1499 14.0276 21.1499C13.5309 21.1499 13.0482 21.1752 12.5881 21.2173C12.586 21.2175 12.5838 21.2177 12.5817 21.2179C12.5326 21.2224 12.4836 21.2271 12.4349 21.232C10.4586 21.4255 8.94472 21.9056 8.5847 22.0491C8.57805 22.049 8.57136 22.0489 8.56471 22.0487C6.5984 21.9435 5.8818 19.3 5.61264 17.6849C5.52257 17.0999 5.56761 16.47 5.70261 15.8849ZM3.67761 22.95C3.67761 22.41 3.81261 22.005 4.12759 21.69C4.66685 21.1957 5.47522 21.1501 5.79115 21.15C6.23649 21.906 6.78788 22.4312 7.43815 22.7114C7.67419 22.8211 7.92072 22.901 8.17759 22.95V26.55C3.94761 26.325 3.67761 23.085 3.67761 22.95ZM9.07761 26.5499V22.8149C9.79574 22.5905 11.7674 22.0529 14.0102 22.0501C14.042 22.0501 14.0737 22.0502 14.1054 22.0505C14.11 22.0505 14.1146 22.0505 14.1193 22.0506C16.3542 22.072 18.287 22.6132 18.9776 22.8229V26.5499H9.07761ZM19.8776 26.505V22.9175C20.8571 22.7787 21.6586 22.1778 22.264 21.15C22.58 21.1501 23.3883 21.1957 23.9276 21.69C24.2426 22.005 24.3776 22.41 24.3776 22.905C24.3776 23.0399 24.1526 26.2799 19.8776 26.505Z" fill="#D7B65D"/>
</g>
</g>
</g>
</g>
<defs>
<clipPath id="clip0_160_42">
<rect width="27" height="27" fill="white" transform="translate(0.550049 0.449951)"/>
</clipPath>
</defs>
</svg>
