<svg width="60" height="61" viewBox="0 0 60 61" fill="none" xmlns="http://www.w3.org/2000/svg">
<path d="M30 59.8102C29.028 59.8185 28.0727 59.5574 27.24 59.056L16.8343 52.9702C12.9388 50.7916 9.68741 47.6233 7.40877 43.7854C5.13013 39.9476 3.90499 35.5762 3.85718 31.1131V14.4845C3.85764 13.364 4.20125 12.2704 4.84178 11.351C5.48232 10.4316 6.38906 9.73036 7.44004 9.34166L28.1143 1.74738C29.332 1.30165 30.6681 1.30165 31.8858 1.74738L52.56 9.34166C53.611 9.73036 54.5178 10.4316 55.1583 11.351C55.7988 12.2704 56.1424 13.364 56.1429 14.4845V31.1131C56.0951 35.5762 54.8699 39.9476 52.5913 43.7854C50.3127 47.6233 47.0613 50.7916 43.1658 52.9702L32.76 59.056C31.9273 59.5574 30.972 59.8185 30 59.8102ZM30 5.70738C29.864 5.68262 29.7246 5.68262 29.5886 5.70738L8.91432 13.336C8.68144 13.4222 8.48162 13.5795 8.34316 13.7857C8.2047 13.9918 8.13463 14.2363 8.14289 14.4845V31.1131C8.1926 34.8267 9.2223 38.4613 11.1278 41.6492C13.0333 44.8371 15.747 47.4651 18.9943 49.2674L29.4 55.3702C29.584 55.4708 29.7904 55.5235 30 55.5235C30.2097 55.5235 30.416 55.4708 30.6 55.3702L41.0057 49.2674C44.2531 47.4651 46.9668 44.8371 48.8723 41.6492C50.7778 38.4613 51.8075 34.8267 51.8572 31.1131V14.4845C51.8583 14.2421 51.7848 14.0052 51.6469 13.8059C51.5089 13.6066 51.313 13.4545 51.0857 13.3702L30.4115 5.77595C30.2797 5.72817 30.1402 5.70493 30 5.70738Z" fill="#D7B65D"/>
<path d="M28.1143 39.0842C27.6084 39.0809 27.1187 38.9056 26.7257 38.5871L19.4057 32.4157C18.9692 32.0497 18.696 31.5253 18.6462 30.9579C18.5963 30.3904 18.774 29.8264 19.14 29.39C19.506 28.9535 20.0304 28.6803 20.5978 28.6305C21.1652 28.5806 21.7292 28.7583 22.1657 29.1242L27.9085 33.9585L37.7143 23.1585C38.0962 22.7357 38.6304 22.4819 39.1994 22.453C39.7685 22.424 40.3257 22.6223 40.7485 23.0042C41.1714 23.3862 41.4252 23.9204 41.4541 24.4894C41.483 25.0585 41.2847 25.6157 40.9028 26.0385L29.7943 38.3814C29.5816 38.6129 29.3213 38.7956 29.0313 38.9169C28.7413 39.0382 28.4284 39.0953 28.1143 39.0842Z" fill="#D7B65D"/>
</svg>
