<svg width="60" height="61" viewBox="0 0 60 61" fill="none" xmlns="http://www.w3.org/2000/svg">
<g clip-path="url(#clip0_160_519)">
<path d="M50.9581 9.01126C45.36 3.41319 37.917 0.330078 29.9999 0.330078C22.0829 0.330078 14.6399 3.41319 9.04166 9.01126C3.44359 14.6093 0.360474 22.0525 0.360474 29.9694C0.360474 30.5915 0.659714 31.1758 1.16438 31.5396C1.66918 31.9033 2.31837 32.0023 2.90847 31.8056C3.01157 31.7712 3.11144 31.7282 3.20732 31.6772C8.41905 28.8974 14.6419 28.8972 19.8534 31.6774C20.4068 31.9723 21.0697 31.9809 21.6306 31.7003C21.6459 31.6927 21.661 31.685 21.6761 31.677C23.6929 30.6011 25.8617 29.9436 28.0644 29.7006V53.8456C28.0644 55.2866 26.892 56.4589 25.4509 56.4589C24.0098 56.4589 22.8375 55.2866 22.8375 53.8456C22.8375 52.7767 21.9709 51.9101 20.902 51.9101C19.833 51.9101 18.9664 52.7767 18.9664 53.8456C18.9664 57.4212 21.8753 60.3301 25.4509 60.3301C29.0266 60.3301 31.9355 57.4212 31.9355 53.8456V29.7008C34.1347 29.9437 36.3001 30.5999 38.3144 31.6729C38.8841 31.9804 39.5733 31.982 40.1462 31.6762C45.3536 28.899 51.5712 28.8974 56.78 31.6703C57.0681 31.8268 57.3859 31.9049 57.7037 31.9049C58.0393 31.9049 58.375 31.8176 58.6752 31.6434C59.2719 31.2971 59.6393 30.6593 59.6393 29.9693C59.6394 22.0525 56.5563 14.6093 50.9581 9.01126ZM29.9989 25.7202C27.3563 25.7202 24.7139 26.2095 22.2055 27.1841C22.4175 21.2384 23.3062 15.7419 24.7618 11.4814C26.2502 7.12472 28.2085 4.52382 29.9999 4.52382C31.7914 4.52382 33.7495 7.12472 35.238 11.4814C36.6937 15.7423 37.5824 21.2389 37.7942 27.1848C35.2852 26.2096 32.6426 25.7202 29.9989 25.7202ZM4.40944 26.9337C5.73466 15.69 14.3285 6.64057 25.3486 4.62331C24.3063 5.94634 23.2671 7.87405 22.3197 10.6471C20.7678 15.1895 19.8273 21.025 19.6192 27.3012C14.748 25.3251 9.34619 25.2018 4.40944 26.9337ZM40.3807 27.3004C40.1724 21.0245 39.2321 15.1895 37.6802 10.647C36.7328 7.87405 35.6936 5.94621 34.6513 4.62318C45.6713 6.64044 54.2651 15.6896 55.5904 26.9333C50.6542 25.2018 45.2523 25.3249 40.3807 27.3004Z" fill="#D7B65D"/>
</g>
<defs>
<clipPath id="clip0_160_519">
<rect width="60" height="60" fill="white" transform="translate(0 0.330078)"/>
</clipPath>
</defs>
</svg>
