<svg width="61" height="61" viewBox="0 0 61 61" fill="none" xmlns="http://www.w3.org/2000/svg">
<path d="M30.5 37.8301C26.9375 37.8301 23.9375 40.8301 23.9375 44.3926C23.9375 47.9551 26.9375 50.9551 30.5 50.9551C34.0625 50.9551 37.0625 47.9551 37.0625 44.3926C37.0625 40.8301 34.0625 37.8301 30.5 37.8301Z" fill="#D7B65D"/>
<path d="M30.5 28.4551C26 28.4551 21.6875 30.3301 18.6875 33.7051C17.9375 34.4551 18.125 35.5801 18.875 36.3301C19.625 37.0801 20.75 36.8926 21.5 36.1426C23.75 33.5176 27.125 32.2051 30.5 32.2051C33.875 32.2051 37.25 33.7051 39.5 36.1426C39.875 36.5176 40.4375 36.7051 40.8125 36.7051C41.1875 36.7051 41.75 36.5176 42.125 36.1426C42.875 35.3926 42.875 34.2676 42.3125 33.5176C39.3125 30.3301 35 28.4551 30.5 28.4551Z" fill="#D7B65D"/>
<path d="M30.5 19.0801C23.5625 19.0801 17 21.8926 12.125 26.9551C11.375 27.7051 11.375 28.8301 12.125 29.5801C12.875 30.3301 14 30.3301 14.75 29.5801C18.875 25.2676 24.5 22.8301 30.5 22.8301C36.5 22.8301 42.125 25.2676 46.25 29.5801C46.625 29.9551 47.1875 30.1426 47.5625 30.1426C47.9375 30.1426 48.5 29.9551 48.875 29.5801C49.625 28.8301 49.625 27.7051 48.875 26.9551C44 21.8926 37.4375 19.0801 30.5 19.0801Z" fill="#D7B65D"/>
<path d="M55.4375 20.3926C48.875 13.4551 40.0625 9.70508 30.5 9.70508C20.9375 9.70508 12.125 13.4551 5.5625 20.3926C4.8125 21.1426 4.8125 22.2676 5.5625 23.0176C6.3125 23.7676 7.4375 23.7676 8.1875 23.0176C14 16.8301 22.0625 13.4551 30.5 13.4551C38.9375 13.4551 47 16.8301 52.8125 23.0176C53.1875 23.3926 53.75 23.5801 54.125 23.5801C54.5 23.5801 55.0625 23.3926 55.4375 23.0176C56.1875 22.2676 56.1875 21.1426 55.4375 20.3926Z" fill="#D7B65D"/>
</svg>
