<svg width="28" height="28" viewBox="0 0 28 28" fill="none" xmlns="http://www.w3.org/2000/svg">
<g clip-path="url(#clip0_160_383)">
<g clip-path="url(#clip1_160_383)">
<g clip-path="url(#clip2_160_383)">
<path d="M27.8268 13.186C27.6991 13.0037 27.4905 12.8951 27.268 12.8951H21.7378C20.1874 11.4817 18.1451 10.6723 16.0096 10.6723H11.6835C12.049 10.3259 12.5406 10.1215 13.0743 10.1215H15.9875C16.2932 10.1215 16.5616 9.91816 16.6442 9.62377C16.7269 9.32946 16.6036 9.01605 16.3426 8.85681C14.2736 7.59517 11.899 6.92822 9.47559 6.92822H6.7273C5.25478 6.92822 3.92444 7.85687 3.41679 9.23913C3.33997 9.44837 3.37019 9.68197 3.49784 9.86481C3.62542 10.0476 3.83431 10.1565 4.05727 10.1565H5.70601L2.8998 16.2432C2.33607 16.5729 1.78313 16.9255 1.24267 17.302C1.05942 17.4295 0.950195 17.6387 0.950195 17.8618V20.3491C0.950195 20.7258 1.25563 21.0313 1.63242 21.0313H17.5972C19.8608 21.0313 22.0374 20.345 23.8915 19.0466C25.7457 17.7483 27.135 15.9377 27.9091 13.8106C27.9851 13.6014 27.9545 13.3683 27.8268 13.186ZM17.5972 19.6669H2.31465V18.2214C6.15996 15.6283 10.6359 14.2596 15.2823 14.2596H26.2386C24.6453 17.5304 21.2877 19.6669 17.5972 19.6669ZM7.39125 9.75995C7.4886 9.54873 7.47168 9.30244 7.34629 9.10651C7.2209 8.91064 7.00429 8.79214 6.77172 8.79214H5.34763C5.72804 8.47709 6.21352 8.29275 6.7273 8.29275H9.47559C10.6049 8.29275 11.7224 8.4543 12.7958 8.76826C11.4152 8.87933 10.2454 9.8105 9.83506 11.1555C9.77195 11.3623 9.81063 11.5867 9.9393 11.7605C10.068 11.9343 10.2713 12.0368 10.4876 12.0368H16.0096C17.207 12.0368 18.3693 12.3403 19.3971 12.8951H15.2824C11.6523 12.8951 8.12062 13.6843 4.8829 15.2009L7.39125 9.75995Z" fill="#D7B65D"/>
<path d="M14.6835 16.1582H12.6625C12.2857 16.1582 11.9802 16.4637 11.9802 16.8404C11.9802 17.2172 12.2857 17.5227 12.6625 17.5227H14.6835C15.0603 17.5227 15.3657 17.2172 15.3657 16.8404C15.3657 16.4637 15.0603 16.1582 14.6835 16.1582Z" fill="#D7B65D"/>
<path d="M20.4618 16.1582H18.4408C18.064 16.1582 17.7585 16.4637 17.7585 16.8404C17.7585 17.2172 18.064 17.5227 18.4408 17.5227H20.4618C20.8386 17.5227 21.144 17.2172 21.144 16.8404C21.144 16.4637 20.8385 16.1582 20.4618 16.1582Z" fill="#D7B65D"/>
</g>
</g>
</g>
<defs>
<clipPath id="clip0_160_383">
<rect width="27" height="27" fill="white" transform="translate(0.950195 0.47998)"/>
</clipPath>
<clipPath id="clip1_160_383">
<rect width="27" height="27" fill="white" transform="translate(0.950195 0.47998)"/>
</clipPath>
<clipPath id="clip2_160_383">
<rect width="27" height="27" fill="white" transform="translate(0.950195 0.47998)"/>
</clipPath>
</defs>
</svg>
