<?xml version="1.0" encoding="UTF-8" standalone="no"?>
<svg xmlns="http://www.w3.org/2000/svg" xmlns:xlink="http://www.w3.org/1999/xlink" version="1.1" viewBox="0 0 100 100" style="enable-background:new 0 0 100 100" xml:space="preserve" fill="#D7B65D">
    <path d="M84.7 18.2v-.7c0-.5-.2-.9-.4-1.3-.4-.5-1-.7-1.6-.7C71.1 15.6 60 11.2 51.9 3l-.5-.5c-.4-.4-.9-.6-1.4-.6-.5 0-1.1.2-1.4.6L48 3c-8.1 8.2-19.2 12.6-30.7 12.3-.6 0-1.2.3-1.6.7-.3.3-.5.8-.4 1.2v.7c-.2 12-4.5 22.1-12.9 30.4-.4.6-.6 1.1-.6 1.7 0 .5.2 1 .6 1.4 8.3 8 13 19 12.9 30.5v.7c0 .5.1.9.4 1.3.4.5 1 .8 1.6.7C28.8 84.4 39.9 88.9 48 97c.2.2.3.4.5.5.4.4.9.6 1.4.6.5 0 1-.2 1.4-.6.2-.2.3-.4.5-.5 8.1-8.2 19.2-12.6 30.7-12.3.6 0 1.2-.3 1.6-.7.3-.4.4-.8.4-1.3V82c-.1-11.5 4.6-22.5 13-30.4.4-.4.6-.9.6-1.5 0-.5-.2-1-.6-1.4-8.2-8-12.9-19-12.8-30.5zm-5.3 1c.7.1 1.3.6 1.3 1.4.6 10.5 4.7 20.6 11.8 28.4.5.5.6 1.3.1 1.8l-.1.1c-7.1 7.8-11.3 17.9-11.8 28.4 0 .7-.6 1.4-1.3 1.4-10.5.5-20.6 4.6-28.4 11.7-.5.5-1.3.6-1.9.1l-.1-.1c-7.8-7.1-17.9-11.2-28.4-11.7-.7 0-1.3-.6-1.3-1.3-.5-10.5-4.7-20.6-11.7-28.5-.6-.5-.7-1.3-.2-1.9l.1-.1c7.1-7.8 11.2-17.9 11.8-28.4 0-.7.6-1.4 1.3-1.4 10.5-.5 20.6-4.6 28.4-11.7.5-.5 1.3-.6 1.9-.1l.1.1c7.8 7.1 17.9 11.3 28.4 11.8z"/>
    <path d="M74.8 23.9c-4.1-.5-8.1-1.6-11.9-3.1-4.3-1.7-8.4-4-12.1-6.8-.5-.4-1.2-.4-1.7 0-3.7 2.8-7.8 5.1-12.1 6.8-3.8 1.5-7.8 2.5-11.9 3.1-.6.1-1.1.6-1.2 1.2-.6 4.6-1.9 9.1-3.7 13.4-1.6 3.8-3.7 7.3-6.2 10.6-.4.5-.4 1.2 0 1.7 2.5 3.3 4.6 6.8 6.2 10.6 1.9 4.3 3.2 8.8 3.7 13.4.1.6.6 1.1 1.2 1.2 4.1.5 8.1 1.6 11.9 3.1 4.3 1.7 8.4 4 12.1 6.8.5.4 1.2.4 1.7 0 3.7-2.8 7.8-5.1 12.1-6.8 3.8-1.5 7.8-2.5 11.9-3.1.6-.1 1.1-.6 1.2-1.2.6-4.6 1.9-9.1 3.7-13.4 1.7-3.8 3.7-7.3 6.2-10.6.4-.5.4-1.2 0-1.7-2.5-3.3-4.5-6.9-6.2-10.6-1.9-4.3-3.1-8.8-3.7-13.4-.1-.6-.5-1.1-1.2-1.2zm-3.2 3.5c.6.1 1.1.5 1.1 1.1.7 4 2 7.9 3.6 11.6 1.4 3.2 3.1 6.2 5 9 .2.5.1 1.1-.1 1.6-1.9 2.9-3.6 5.9-5 9.1-1.6 3.7-2.8 7.6-3.6 11.6-.1.6-.5 1.1-1.1 1.1-3.4.7-6.7 1.7-9.9 2.9-3.8 1.5-7.4 3.4-10.7 5.7-.5.3-1.1.3-1.6 0-3.4-2.3-6.9-4.2-10.7-5.7-3.2-1.3-6.5-2.2-9.9-2.9-.6-.1-1.1-.5-1.1-1.1-.7-4-2-7.9-3.6-11.6-1.4-3.2-3.1-6.2-5-9.1-.3-.5-.3-1.1 0-1.6 1.9-2.9 3.6-5.9 5-9 1.6-3.7 2.8-7.6 3.6-11.6.1-.6.5-1 1.1-1.1 3.4-.7 6.7-1.7 9.9-2.9 3.8-1.5 7.4-3.4 10.8-5.7.5-.3 1.1-.3 1.6 0 3.4 2.3 7 4.2 10.8 5.7 3.1 1.3 6.4 2.2 9.8 2.9z"/>
    <path d="M75.4 45.8c.1-.6-.1-1.2-.4-1.7-.2-.5-.6-.9-1.2-1.1-.6-.3-1.2-.4-1.8-.4h-4.2v1.9h4.3c.5 0 .9.2 1.1.6.1.2.2.4.2.7 0 .2-.1.4-.2.6 0 .2-.2.4-.4.5-.3 0-.5.1-.8.1h-4.3v6h2v-4H72c.6 0 1.2-.1 1.8-.4.5-.3.8-.7 1.2-1.1.3-.5.5-1.1.4-1.7zm-13.9-.2c0-.6-.1-1.1-.4-1.6-.3-.4-.6-.8-1.1-1.1-.5-.3-1-.4-1.5-.4h-4.6v1.8h4.5c.2 0 .4 0 .5.1.1 0 .3.2.4.4.1.2.1.5.1.7 0 .2 0 .4-.1.6-.1.2-.2.4-.4.5-.2.1-.3.1-.5.1h-4.5V53h2v-4.3h1.2l2.4 4.3h2.4l-2.5-4.4c.2-.1.5-.2.7-.3.4-.3.8-.7 1.1-1.1.1-.4.3-1 .3-1.6zM65.6 42.5h-2.1v10.7h2.1V42.5zm0 13.5h-2v4.4h-3.9V56h-2v10.7h2v-4.3h3.9v4.3h2V56zm2.2 0v10.7h2.1V56h-2.1zM42.2 28.9h-2L37.9 36l-2.2-7.2h-2.1l3.6 10.7h1.6l3.4-10.6zM49.7 35.4h2.2c.6 0 1.2-.1 1.8-.4.5-.2.9-.6 1.2-1.1.3-.5.5-1.1.5-1.7 0-.6-.2-1.2-.5-1.7-.2-.5-.7-.9-1.2-1.1-.5-.3-1.2-.4-1.8-.4h-4.2v1.9H52c.2 0 .4.1.6.1.2.1.4.3.5.4.1.2.1.4.1.7 0 .2 0 .5-.1.7-.1.2-.3.4-.5.4-.2.1-.4.2-.6.2h-4.3v6h2v-4zM45.5 28.9h-2.1v10.7h2.1V28.9zm7.2 15.5v-1.9h-7.8v1.9h2.9V53h2v-8.7h2.9zM44.9 56.4c-.6-.3-1.3-.5-2-.5-.7-.1-1.4.1-2 .5-.6.3-1.1.8-1.3 1.3-.3.6-.5 1.3-.4 2.1v3c0 .7.1 1.5.4 2.1.3.6.8 1 1.3 1.3.6.4 1.3.5 2 .6.7 0 1.4-.2 2-.6.6-.3 1-.8 1.4-1.3.3-.7.4-1.4.4-2.1v-3c0-.7-.1-1.4-.4-2.1-.3-.6-.8-1-1.4-1.3zm-.5 2.3c.2.3.3.7.3 1v3.1c0 .3-.1.7-.3 1-.1.3-.4.5-.6.7-.3.1-.6.2-1 .2s-.7 0-1-.2c-.2-.2-.5-.4-.6-.7-.2-.3-.3-.7-.2-1v-3.1c0-.4 0-.7.2-1 .1-.3.4-.5.6-.6.3-.2.7-.3 1-.2.3 0 .7 0 1 .2.2.1.4.4.6.6zM37.2 57c-.3-.3-.7-.5-1.1-.6-.4-.2-.8-.3-1.2-.4-.4-.1-.8-.1-1.2-.1-.7 0-1.4.1-2.1.4-.6.2-1.1.6-1.3 1.1-.3.5-.5 1.1-.4 1.8 0 .6.1 1.3.5 1.8.3.4.7.8 1.2.9l1.8.4H33.7c.3 0 .7.1 1 .2.2.1.4.2.6.4.2.2.2.4.2.7 0 .4-.2.8-.5 1-.5.2-1 .3-1.5.3-.6 0-1.1-.1-1.6-.3-.5-.2-1-.4-1.4-.7l-.9 1.6c.3.3.7.5 1.1.7.4.2.9.4 1.3.4.5.1 1 .2 1.5.2.7 0 1.5-.1 2.2-.4.6-.2 1.1-.6 1.4-1.1.3-.5.5-1.1.4-1.8 0-.6-.1-1.2-.3-1.7-.2-.5-.6-.8-1-1-.7-.2-1.4-.4-2.1-.4-.4-.1-.8-.2-1.1-.3-.2-.1-.5-.2-.7-.4-.2-.2-.3-.5-.3-.7 0-.4.2-.7.5-.8.4-.2.9-.3 1.4-.3.4 0 .9 0 1.3.2s.9.4 1.3.7l.7-1.8zm18.1.5c-.3-.5-.8-.9-1.3-1.2-.5-.3-1.2-.5-1.8-.4-.7-.1-1.5.1-2.1.4-.6.3-1 .7-1.3 1.3-.3.7-.4 1.4-.4 2.2v3c0 .7.1 1.5.4 2.2.3.5.8 1 1.3 1.3.6.3 1.4.5 2.1.5.6 0 1.3-.2 1.8-.5s1-.7 1.2-1.2c.4-.6.7-1.3.7-2h-2c-.1.3-.2.6-.4.9l-.6.6c-.2.1-.5.2-.7.2-.3 0-.7 0-1-.2-.2-.2-.4-.4-.6-.7-.2-.3-.3-.7-.3-1v-3c0-.4.1-.8.3-1.1.1-.3.4-.5.7-.6.3-.2.6-.2 1-.2.3 0 .5 0 .7.2.3.1.5.3.6.6.2.3.3.6.4.9h2.1c-.1-.9-.3-1.6-.8-2.2zm24.8-47.2c.4-.1.5-.3.2-.7C73.5 4.5 65.5 1.2 57 0c-.4 0-.5.3-.3.6 6.4 5.9 14.7 9.3 23.4 9.7zm10.3 9.4c-.3-.3-.5-.2-.6.2.3 8.6 3.7 16.9 9.6 23.2.3.1.5 0 .6-.3-1.2-8.4-4.5-16.3-9.6-23.1zm9.5 37.4c0-.4-.2-.5-.6-.3-5.8 6.4-9.2 14.6-9.6 23.2.1.4.3.5.6.2 5.1-6.8 8.4-14.7 9.6-23.1zM43.2.7c.2-.3.1-.6-.3-.6-8.5 1.1-16.5 4.4-23.3 9.6-.3.3-.2.6.2.7 8.7-.4 17-3.8 23.4-9.7zM10.3 19.9c-.1-.4-.3-.5-.7-.2C4.5 26.5 1.2 34.4 0 42.8c0 .3.3.4.6.3 5.8-6.4 9.2-14.6 9.7-23.2zM.6 56.8c-.3-.2-.6-.1-.6.3 1.2 8.4 4.5 16.3 9.6 23.1.3.3.6.2.7-.2-.4-8.7-3.8-16.9-9.7-23.2zM42.9 100c.4 0 .5-.2.3-.6-6.4-5.9-14.6-9.4-23.3-9.7-.4.1-.5.3-.2.7 6.8 5.1 14.8 8.4 23.2 9.6zm13.8-.6c-.2.3-.1.6.3.6 8.4-1.2 16.5-4.5 23.3-9.6.3-.3.2-.6-.2-.6-8.7.3-17 3.7-23.4 9.6z"/>
</svg>
