<svg width="60" height="61" viewBox="0 0 60 61" fill="none" xmlns="http://www.w3.org/2000/svg">
<g clip-path="url(#clip0_160_493)">
<path d="M8.39662 6.49248L5.66574 8.20353C5.48435 8.30885 5.32954 8.45439 5.21323 8.62895C5.09692 8.8035 5.0222 9.00241 4.99484 9.21037C4.96748 9.41834 4.98819 9.62981 5.05539 9.8285C5.12259 10.0272 5.23448 10.2078 5.38246 10.3565C5.46522 10.4456 5.56068 10.5219 5.66574 10.5831L24.7026 21.6313L27.0255 23.9542L17.1105 34.1525C15.4846 35.7791 14.1268 37.6532 13.0878 39.7049L5.66574 37.9372C5.46789 37.8921 5.2622 37.8943 5.06533 37.9435C4.86846 37.9927 4.68595 38.0876 4.5326 38.2205L0.521268 41.3933C0.329462 41.5208 0.178349 41.7007 0.0859328 41.9117C-0.00648295 42.1226 -0.0363045 42.3557 2.14846e-05 42.5831C0.0335646 42.915 0.19639 43.2203 0.453279 43.433C0.536039 43.5221 0.631497 43.5984 0.736565 43.6596L9.46178 48.3055L8.44195 50.4585C8.30685 50.7128 8.25601 51.0035 8.29674 51.2886C8.33747 51.5737 8.46767 51.8385 8.66858 52.0449C8.87909 52.2374 9.13991 52.3662 9.42073 52.4164C9.70156 52.4665 9.99085 52.4359 10.255 52.3282L12.4533 51.3083L17.0992 59.9656C17.1535 60.0917 17.2303 60.2069 17.3258 60.3055C17.5588 60.5261 17.857 60.6652 18.1757 60.7021C18.4013 60.7293 18.6301 60.6965 18.839 60.6069C19.0479 60.5174 19.2295 60.3743 19.3655 60.1922L22.5496 56.3508C22.6743 56.1817 22.7637 55.9892 22.8124 55.7848C22.8611 55.5804 22.868 55.3682 22.8329 55.161L20.9632 47.7389C23.052 46.6814 24.9634 45.3051 26.6289 43.6596L36.8272 33.8013L39.2068 36.0675L50.3003 55.2177C50.3428 55.3344 50.4224 55.4339 50.5269 55.501C50.6441 55.6393 50.7927 55.7475 50.9602 55.8165C51.1278 55.8855 51.3095 55.9133 51.4901 55.8976C51.7247 55.9013 51.9565 55.8462 52.1643 55.7373C52.3721 55.6285 52.5494 55.4693 52.6799 55.2743L54.391 52.4981C55.0828 51.3364 55.5265 50.0439 55.6941 48.7021C55.8461 47.4595 55.7064 46.1986 55.2861 45.0194L47.0142 24.0675L56.306 15.1157C56.3626 15.1157 56.4193 15.1157 56.4759 15.0024C58.1892 13.2984 59.3703 11.1331 59.8754 8.7701C60.0942 7.8343 60.0795 6.85902 59.8325 5.93026C59.5855 5.00149 59.1138 4.14776 58.4589 3.44432L57.4958 2.48115C56.7969 1.80211 55.9399 1.30774 55.0023 1.04266C54.0646 0.777571 53.0756 0.750104 52.1247 0.962733C49.7603 1.41934 47.5996 2.6087 45.949 4.36217V4.41882C45.8924 4.41882 45.8357 4.41882 45.7791 4.53214L36.8952 13.8239L15.864 5.59729C14.699 5.13536 13.4351 4.97932 12.1927 5.14404C10.8444 5.31231 9.54893 5.77247 8.39662 6.49248ZM9.81305 8.82676C10.5342 8.33879 11.3582 8.02362 12.2209 7.90571C13.0836 7.7878 13.9619 7.87032 14.7876 8.14687L34.7309 15.9656L28.9519 21.9146L26.5723 19.535C26.4589 19.4217 26.3456 19.365 26.289 19.3083L9.06518 9.33667L9.85838 8.82676H9.81305ZM55.1388 5.71061C54.2172 4.82221 53.0873 4.17934 51.8527 3.84092C52.4558 3.59723 53.1122 3.51606 53.7565 3.60554C54.4008 3.69503 55.0103 3.95202 55.5241 4.35084L56.4873 5.31401C56.8881 5.82905 57.1463 6.44055 57.2358 7.08703C57.3253 7.7335 57.243 8.39215 56.9972 8.99673C56.6858 7.73464 56.0399 6.57985 55.1275 5.65395L55.1388 5.71061ZM54.2663 13.2913L53.8697 13.6879C53.7454 11.9655 53.0086 10.3445 51.7927 9.1182C50.5768 7.89191 48.9621 7.14137 47.2408 7.00239L47.5921 6.56047C49.915 6.05055 51.7847 6.39049 53.0878 7.69361C54.391 8.99673 54.7309 10.8664 54.221 13.246L54.2663 13.2913ZM44.4646 9.89191C45.3866 9.61355 46.3637 9.57144 47.3062 9.76945C48.2488 9.96745 49.1264 10.3992 49.8584 11.0251C50.4743 11.7604 50.8998 12.6361 51.0974 13.5747C51.295 14.5134 51.2586 15.4862 50.9915 16.4075L24.7026 41.6766C22.7334 43.563 20.427 45.0621 17.9037 46.0959L12.4646 48.2489L14.7309 42.8098C15.7171 40.3254 17.2018 38.0694 19.0935 36.1809L44.4646 9.89191ZM41.5751 34.5945C41.5139 34.4894 41.4375 34.3939 41.3485 34.3112L38.9235 31.8749L44.8612 26.1072L52.6799 46.0392C52.954 46.8671 53.0352 47.7468 52.9174 48.6109C52.7996 49.475 52.4858 50.3008 52 51.0251L51.5468 51.8183L41.5751 34.5945ZM18.357 48.8721L19.9434 55.1044L18.5269 56.8608L15.0708 50.2319L18.357 48.8721ZM5.66574 40.7701L11.898 42.2998L10.5383 45.6993L3.9207 42.1865L5.66574 40.7701Z" fill="#D7B65D"/>
<path d="M0.917856 21.1213C0.783821 21.2493 0.677135 21.4032 0.604245 21.5736C0.531355 21.744 0.493774 21.9274 0.493774 22.1128C0.493774 22.2981 0.531355 22.4816 0.604245 22.652C0.677135 22.8224 0.783821 22.9763 0.917856 23.1043C1.17852 23.3497 1.52302 23.4864 1.88103 23.4864C2.23904 23.4864 2.58354 23.3497 2.8442 23.1043L9.41644 16.5321C9.66328 16.2608 9.80007 15.9073 9.80007 15.5406C9.80007 15.1738 9.66328 14.8203 9.41644 14.5491C9.15578 14.3036 8.81127 14.167 8.45327 14.167C8.09526 14.167 7.75075 14.3036 7.49009 14.5491L0.917856 21.1213Z" fill="#D7B65D"/>
<path d="M9.64301 25.9373C9.51499 25.8032 9.36112 25.6965 9.1907 25.6237C9.02028 25.5508 8.83686 25.5132 8.65151 25.5132C8.46616 25.5132 8.28273 25.5508 8.11231 25.6237C7.9419 25.6965 7.78803 25.8032 7.66001 25.9373L6.8668 26.7305C6.6214 26.9911 6.48474 27.3356 6.48474 27.6936C6.48474 28.0516 6.6214 28.3962 6.8668 28.6568C7.13803 28.9037 7.49157 29.0404 7.85831 29.0404C8.22504 29.0404 8.57858 28.9037 8.84981 28.6568L9.64301 27.9203C9.88985 27.649 10.0266 27.2955 10.0266 26.9288C10.0266 26.562 9.88985 26.2085 9.64301 25.9373Z" fill="#D7B65D"/>
<path d="M10.8329 22.8212C10.6988 22.9433 10.5918 23.0921 10.5186 23.2579C10.4453 23.4238 10.4075 23.6031 10.4075 23.7844C10.4075 23.9657 10.4453 24.145 10.5186 24.3108C10.5918 24.4767 10.6988 24.6254 10.8329 24.7476C11.0916 24.9922 11.4342 25.1285 11.7904 25.1285C12.1465 25.1285 12.4891 24.9922 12.7479 24.7476L16.6572 20.8382C16.9041 20.567 17.0409 20.2134 17.0409 19.8467C17.0409 19.48 16.9041 19.1264 16.6572 18.8552C16.3966 18.6098 16.0521 18.4731 15.694 18.4731C15.336 18.4731 14.9915 18.6098 14.7309 18.8552L10.8329 22.8212Z" fill="#D7B65D"/>
<path d="M46.2777 53.4045C46.5245 53.1333 46.6613 52.7797 46.6613 52.413C46.6613 52.0463 46.5245 51.6927 46.2777 51.4215C46.1556 51.2875 46.0068 51.1804 45.841 51.1072C45.6751 51.0339 45.4958 50.9961 45.3145 50.9961C45.1332 50.9961 44.9539 51.0339 44.788 51.1072C44.6222 51.1804 44.4734 51.2875 44.3513 51.4215L37.7904 57.9937C37.6567 58.1207 37.5502 58.2737 37.4775 58.4431C37.4047 58.6126 37.3672 58.7951 37.3672 58.9796C37.3672 59.164 37.4047 59.3465 37.4775 59.516C37.5502 59.6855 37.6567 59.8384 37.7904 59.9654C38.0511 60.2108 38.3956 60.3475 38.7536 60.3475C39.1116 60.3475 39.4561 60.2108 39.7168 59.9654L46.2777 53.4045Z" fill="#D7B65D"/>
<path d="M41.9263 46.1523C42.1717 45.8917 42.3083 45.5471 42.3083 45.1891C42.3083 44.8311 42.1717 44.4866 41.9263 44.226C41.7993 44.0922 41.6464 43.9858 41.4769 43.913C41.3074 43.8403 41.1249 43.8027 40.9405 43.8027C40.756 43.8027 40.5735 43.8403 40.404 43.913C40.2346 43.9858 40.0816 44.0922 39.9546 44.226L36.0906 48.0787C35.8549 48.3468 35.7301 48.6946 35.7416 49.0515C35.753 49.4083 35.8999 49.7474 36.1524 49.9999C36.4048 50.2523 36.7439 50.3992 37.1008 50.4107C37.4576 50.4222 37.8054 50.2974 38.0736 50.0617L41.9263 46.1523Z" fill="#D7B65D"/>
<path d="M32.1813 51.988C32.0472 52.116 31.9406 52.2698 31.8677 52.4403C31.7948 52.6107 31.7572 52.7941 31.7572 52.9795C31.7572 53.1648 31.7948 53.3482 31.8677 53.5186C31.9406 53.6891 32.0472 53.8429 32.1813 53.971C32.4525 54.2178 32.8061 54.3546 33.1728 54.3546C33.5395 54.3546 33.8931 54.2178 34.1643 53.971L34.9008 53.1778C35.1462 52.9171 35.2829 52.5726 35.2829 52.2146C35.2829 51.8566 35.1462 51.5121 34.9008 51.2514C34.7753 51.1233 34.6254 51.0215 34.46 50.952C34.2946 50.8825 34.1171 50.8467 33.9377 50.8467C33.7583 50.8467 33.5807 50.8825 33.4153 50.952C33.2499 51.0215 33.1 51.1233 32.9745 51.2514L32.1813 52.0446V51.988Z" fill="#D7B65D"/>
</g>
<defs>
<clipPath id="clip0_160_493">
<rect width="60" height="60" fill="white" transform="translate(0 0.77002)"/>
</clipPath>
</defs>
</svg>
