<svg width="60" height="61" viewBox="0 0 60 61" fill="none" xmlns="http://www.w3.org/2000/svg">
<g clip-path="url(#clip0_160_527)">
<path d="M44.4837 6.08514H40.9689V3.51292C40.9689 1.7579 39.5411 0.330078 37.7861 0.330078H22.214C20.459 0.330078 19.0312 1.7579 19.0312 3.51292V6.08514H15.5163C12.8838 6.08514 10.7421 8.22688 10.7421 10.8594V55.5558C10.7421 58.1883 12.8838 60.3301 15.5163 60.3301H44.4837C47.1163 60.3301 49.258 58.1883 49.258 55.5558V10.8594C49.258 8.22688 47.1163 6.08514 44.4837 6.08514ZM15.5163 55.5558V10.8594H44.4837L44.4842 55.5558H15.5163Z" fill="#D7B65D"/>
<path d="M40.4915 42.7417H19.5085V52.2366H40.4915V42.7417Z" fill="#D7B65D"/>
<path d="M40.4915 28.4395H19.5085V37.9344H40.4915V28.4395Z" fill="#D7B65D"/>
</g>
<defs>
<clipPath id="clip0_160_527">
<rect width="60" height="60" fill="white" transform="translate(0 0.330078)"/>
</clipPath>
</defs>
</svg>
