<svg width="28" height="28" viewBox="0 0 28 28" fill="none" xmlns="http://www.w3.org/2000/svg">
<g clip-path="url(#clip0_160_393)">
<g clip-path="url(#clip1_160_393)">
<g clip-path="url(#clip2_160_393)">
<path d="M8.71837 22.3766C8.85298 22.5561 9.16707 22.601 9.34659 22.4215L11.7248 20.3574V22.0625C11.7248 24.5305 9.70558 26.5497 7.23766 26.5497C4.76974 26.5497 2.75051 24.5305 2.75051 22.0625V18.8644C3.78542 18.5974 4.54536 17.4221 4.54536 16.0049C4.54536 14.5876 3.78542 13.4124 2.75051 13.1454V9.91355L3.91719 10.3511C4.00695 10.3959 4.05181 10.3959 4.09666 10.3959C4.27613 10.3959 4.45565 10.3061 4.50051 10.0818C4.59027 9.85745 4.45565 9.58822 4.23128 9.49851L2.75051 8.94322V7.67001L3.91719 8.10751C4.00695 8.15236 4.05181 8.15236 4.09666 8.15236C4.27613 8.15236 4.45565 8.0626 4.50051 7.83828C4.59027 7.6139 4.45565 7.34467 4.23128 7.25496L2.75051 6.69968V5.42641L3.91719 5.86391C4.00695 5.90876 4.05181 5.90876 4.09666 5.90876C4.27613 5.90876 4.45565 5.819 4.50051 5.59468C4.59027 5.3703 4.45565 5.10107 4.23128 5.01137L2.75051 4.45608V0.972868C2.75051 0.703639 2.57105 0.52417 2.30182 0.52417C2.03259 0.52417 1.85312 0.703639 1.85312 0.972868V4.11949L0.641584 3.66516C0.417208 3.5754 0.147979 3.71002 0.0582706 3.93439C-0.0314376 4.15877 0.103125 4.428 0.3275 4.51771L1.85312 5.08982V6.36304L0.641584 5.90871C0.417208 5.81895 0.147979 5.95356 0.0582706 6.17794C-0.0314376 6.40232 0.103125 6.67155 0.3275 6.76125L1.85312 7.33337V8.60658L0.641584 8.15226C0.417208 8.0625 0.147979 8.19711 0.0582706 8.42149C-0.0314902 8.64586 0.103125 8.91509 0.3275 9.0048L1.85312 9.57691V13.1453C0.818213 13.4123 0.0582706 14.5875 0.0582706 16.0048C0.0582706 17.422 0.818213 18.5973 1.85312 18.8643V22.0624C1.85312 25.024 4.27618 27.447 7.23771 27.447C10.1992 27.447 12.6223 25.024 12.6672 22.0624V18.4278L8.76333 21.7484C8.58375 21.9279 8.5389 22.1972 8.71837 22.3766ZM0.955563 16.0049C0.955563 14.928 1.58378 13.9857 2.30171 13.9857C3.01964 13.9857 3.64786 14.928 3.64786 16.0049C3.64786 17.0818 3.01964 18.0241 2.30171 18.0241C1.58378 18.0241 0.955563 17.0818 0.955563 16.0049Z" fill="#D7B65D"/>
<path d="M18.4554 4.11374C18.4554 4.38297 18.6349 4.56244 18.9041 4.56244C19.1734 4.56244 19.3528 4.38297 19.3528 4.11374C19.3528 3.84451 19.1734 3.66504 18.9041 3.66504C18.6349 3.66504 18.4554 3.84451 18.4554 4.11374Z" fill="#D7B65D"/>
<path d="M26.9811 16.9022L23.8401 10.6202C23.8358 10.6137 23.8304 10.6078 23.8256 10.6016C23.7418 8.58026 23.2969 6.87817 22.7125 5.48407C22.7052 5.44642 22.6925 5.40834 22.6735 5.37027C21.2825 2.18437 19.2633 0.658755 19.1735 0.613901C18.994 0.479286 18.8145 0.479286 18.6351 0.613901C18.5661 0.665591 17.8612 1.20137 17.0194 2.24542C16.3982 3.00899 15.7029 4.04537 15.1351 5.37033C15.1312 5.38573 15.1279 5.40109 15.1247 5.41644C14.5181 6.84257 14.0556 8.5954 13.9798 10.6873L10.8723 16.9023C10.7825 17.0818 10.7825 17.2613 10.9171 17.3959C11.0069 17.5305 11.1415 17.5754 11.2761 17.5754C11.321 17.5754 11.3659 17.5754 11.4107 17.5754L14.8879 16.5085C15.1477 17.1828 15.4451 17.7831 15.7568 18.3128L13.6095 24.7548C13.5197 25.1138 13.4748 25.4279 13.5646 25.6971C13.8338 26.7292 14.7313 27.4471 15.7633 27.4471C17.0197 27.4471 18.0069 26.4599 18.0069 25.2035V24.3061C18.0069 23.8124 18.4107 23.4086 18.9043 23.4086C19.3979 23.4086 19.8018 23.8124 19.8018 24.3061V25.2035C19.8018 26.4599 20.7889 27.4471 22.0454 27.4471C23.0775 27.4471 23.9749 26.7292 24.1992 25.6971C24.289 25.383 24.2441 25.0689 24.1544 24.7548L22.0233 18.3614C22.3415 17.8264 22.6457 17.2182 22.9112 16.5333L26.3979 17.5753C26.4428 17.5753 26.4877 17.5753 26.5325 17.5753C26.6671 17.5753 26.8018 17.5305 26.9364 17.3958C27.026 17.2612 27.0708 17.0817 26.9811 16.9022ZM22.9395 11.5935C22.9395 11.5955 22.9394 11.5976 22.9394 11.5996C22.9076 13.1017 22.6421 14.5226 22.1798 15.8254C22.1798 15.8426 22.1798 15.8599 22.18 15.8771C21.8867 16.6928 21.5335 17.3991 21.1656 18.0019C21.073 18.0363 20.9869 18.1083 20.9234 18.2035C20.127 19.4866 19.2437 20.2459 18.832 20.568C18.1796 20.0324 16.6425 18.5851 15.6847 16.0304C15.7137 15.9485 15.7051 15.8756 15.6734 15.7805C15.1798 14.3895 14.9106 12.8638 14.9106 11.2484C14.9106 11.1587 14.9106 11.024 14.9106 10.9343V10.8446C14.9106 10.814 14.8899 10.7627 14.8767 10.7188C14.9402 9.00861 15.2826 7.5381 15.7491 6.30248C16.5927 6.89678 17.7335 7.25483 18.9042 7.25483C20.075 7.25483 21.2158 6.89678 22.0593 6.30248C22.5773 7.67434 22.9427 9.33552 22.9427 11.2933C22.9427 11.3937 22.9416 11.4937 22.9395 11.5935ZM21.6862 5.41507C21.0132 5.99839 19.9811 6.35738 18.9042 6.35738C17.8273 6.35738 16.7952 5.99839 16.1221 5.41507C16.1251 5.4084 16.1282 5.40198 16.1312 5.39536C16.9672 3.60203 18.0196 2.41195 18.6419 1.80314C18.7416 1.70649 18.8303 1.62388 18.9041 1.55615C19.4427 2.0497 20.6991 3.30614 21.6862 5.41507ZM14.5966 15.6907L12.1286 16.4086L14.0132 12.6394C14.046 13.0323 14.0968 13.4131 14.161 13.7865C14.1624 13.7951 14.1638 13.8034 14.1653 13.8119C14.1657 13.8145 14.1662 13.8171 14.1666 13.8197C14.261 14.4014 14.3859 14.9465 14.5337 15.4565C14.5544 15.5346 14.5753 15.6126 14.5966 15.6907ZM23.3016 25.0688C23.3465 25.2483 23.3914 25.3829 23.3465 25.5175C23.2119 26.1008 22.6734 26.5496 22.0452 26.5496C21.2823 26.5496 20.699 25.9663 20.699 25.2035V24.306C20.699 23.3188 19.8913 22.5112 18.9042 22.5112C17.917 22.5112 17.1093 23.3188 17.1093 24.306V25.2035C17.1093 25.9663 16.526 26.5496 15.7632 26.5496C15.135 26.5496 14.5965 26.1009 14.417 25.5624C14.417 25.4278 14.417 25.2932 14.4619 25.1137L16.3914 19.3253C17.5131 20.8509 18.59 21.524 18.635 21.5689C18.8144 21.6587 18.9939 21.6587 19.1286 21.5689C19.1631 21.5689 19.8074 21.1442 20.613 20.2554C20.857 19.9924 21.1154 19.6861 21.3755 19.3353L23.3016 25.0688ZM23.2119 15.6907C23.2332 15.6126 23.2541 15.5345 23.2748 15.4564C23.4226 14.9464 23.5474 14.4013 23.6419 13.8197C23.6424 13.817 23.6428 13.8144 23.6433 13.8118C23.6446 13.8033 23.6461 13.795 23.6475 13.7865C23.7117 13.4132 23.7625 13.0323 23.7952 12.6394L25.6798 16.4086L23.2119 15.6907Z" fill="#D7B65D"/>
<path d="M18.9042 9.04977C18.9042 8.78054 18.7248 8.60107 18.4555 8.60107C18.1863 8.60107 18.0068 8.78054 18.0068 9.04977C18.0068 9.319 17.8274 9.49847 17.5581 9.49847C17.2889 9.49847 17.1094 9.319 17.1094 9.04977C17.1094 8.78054 16.93 8.60107 16.6607 8.60107C16.3915 8.60107 16.212 8.78054 16.212 9.04977C16.212 9.81261 16.7953 10.3959 17.5582 10.3959C18.3209 10.3959 18.9042 9.81261 18.9042 9.04977Z" fill="#D7B65D"/>
<path d="M18.9043 14.8828C18.635 14.8828 18.4556 15.0623 18.4556 15.3315C18.4556 15.6007 18.2761 15.7802 18.0069 15.7802C17.7376 15.7802 17.5582 15.6007 17.5582 15.3315C17.5582 15.0623 17.3787 14.8828 17.1095 14.8828C16.8402 14.8828 16.6608 15.0623 16.6608 15.3315C16.6608 16.0943 17.2441 16.6777 18.0069 16.6777C18.7698 16.6777 19.3531 16.0943 19.3531 15.3315C19.353 15.0623 19.1735 14.8828 18.9043 14.8828Z" fill="#D7B65D"/>
<path d="M21.1478 11.7422C20.8786 11.7422 20.6991 11.9217 20.6991 12.1909C20.6991 12.4601 20.5196 12.6396 20.2504 12.6396C19.9812 12.6396 19.8017 12.4601 19.8017 12.1909C19.8017 11.9217 19.6222 11.7422 19.353 11.7422C19.0838 11.7422 18.9043 11.9217 18.9043 12.1909C18.9043 12.9537 19.4876 13.537 20.2504 13.537C21.0133 13.537 21.5966 12.9537 21.5966 12.1909C21.5965 11.9217 21.417 11.7422 21.1478 11.7422Z" fill="#D7B65D"/>
</g>
</g>
</g>
<defs>
<clipPath id="clip0_160_393">
<rect width="27" height="27" fill="white" transform="translate(0.0300293 0.47998)"/>
</clipPath>
<clipPath id="clip1_160_393">
<rect width="27" height="27" fill="white" transform="translate(0.0300293 0.47998)"/>
</clipPath>
<clipPath id="clip2_160_393">
<rect width="27" height="27" fill="white" transform="translate(0.0300293 0.47998)"/>
</clipPath>
</defs>
</svg>
