<svg width="28" height="28" viewBox="0 0 28 28" fill="none" xmlns="http://www.w3.org/2000/svg">
<g id="luggage-svgrepo-com.svg" clip-path="url(#clip0_160_63)">
<g id="Group">
<g id="Group_2">
<g id="Group_3">
<path id="Vector" d="M12.458 6.98223H9.84513V1.75644C9.84513 1.03608 9.25891 0.449951 8.53863 0.449951H5.92574C5.20546 0.449951 4.61925 1.03608 4.61925 1.75644V6.98223H2.00644C1.28608 6.98223 0.699951 7.56836 0.699951 8.28863V23.966C0.699951 24.4581 0.976523 24.8822 1.37926 25.1048C1.22643 25.3425 1.13539 25.623 1.13539 25.9257C1.13539 26.7662 1.81906 27.4499 2.65955 27.4499C3.50005 27.4499 4.18381 26.7662 4.18381 25.9257C4.18381 25.6909 4.12593 25.471 4.03099 25.2725H10.4335C10.3385 25.4711 10.2807 25.691 10.2807 25.9257C10.2807 26.7662 10.9643 27.4499 11.8048 27.4499C12.6453 27.4499 13.329 26.7662 13.329 25.9257C13.329 25.623 13.2379 25.3425 13.0851 25.1048C13.4879 24.8823 13.7645 24.4581 13.7645 23.966V8.28863C13.7644 7.56836 13.1783 6.98223 12.458 6.98223ZM5.4903 1.75644C5.4903 1.51601 5.68531 1.32092 5.92574 1.32092H8.53863C8.77907 1.32092 8.97416 1.51601 8.97416 1.75644V2.19197H5.4903V1.75644ZM5.4903 3.06285H8.97416V6.98223H5.4903V3.06285ZM1.57092 8.28863C1.57092 8.0482 1.76601 7.8532 2.00644 7.8532H2.44197V9.1596H1.57092V8.28863ZM1.57082 23.966V23.095H1.57092H2.44188V24.4015H2.00635C1.76592 24.4015 1.57082 24.2064 1.57082 23.966ZM2.65965 26.5789C2.29955 26.5789 2.00644 26.2858 2.00644 25.9257C2.00644 25.5656 2.29955 25.2725 2.65965 25.2725C3.01974 25.2725 3.31285 25.5655 3.31285 25.9257C3.31285 26.2859 3.01974 26.5789 2.65965 26.5789ZM11.8047 26.5789C11.4445 26.5789 11.1515 26.2858 11.1515 25.9257C11.1515 25.5656 11.4446 25.2725 11.8047 25.2725C12.1648 25.2725 12.4579 25.5656 12.4579 25.9257C12.4579 26.2858 12.1649 26.5789 11.8047 26.5789ZM12.8935 23.966C12.8935 24.2063 12.6984 24.4015 12.458 24.4015H12.0225V23.095H12.8935V23.966ZM12.8935 22.2241H12.0225C11.5422 22.2241 11.1515 22.6147 11.1515 23.095V24.4015H3.31285V23.095C3.31285 22.6147 2.92219 22.2241 2.44188 22.2241H1.57092V10.0306H2.44188C2.92219 10.0306 3.31285 9.63991 3.31285 9.1596V7.8532H4.61934H9.84513H11.1515V9.1596C11.1515 9.63991 11.5422 10.0306 12.0225 10.0306H12.8935V22.2241ZM12.8935 9.1596H12.0225V7.8532H12.458C12.6984 7.8532 12.8935 8.0482 12.8935 8.28863V9.1596Z" fill="#D7B65D"/>
<path id="Vector_2" d="M3.74841 10.9016H2.87744V21.3532H3.74841V10.9016Z" fill="#D7B65D"/>
<path id="Vector_3" d="M5.92565 10.9016H5.05469V21.3532H5.92565V10.9016Z" fill="#D7B65D"/>
<path id="Vector_4" d="M11.587 10.9016H10.7161V21.3532H11.587V10.9016Z" fill="#D7B65D"/>
<path id="Vector_5" d="M9.40954 10.9016H8.53857V21.3532H9.40954V10.9016Z" fill="#D7B65D"/>
<path id="Vector_6" d="M26.3936 10.9016H15.942C15.2217 10.9016 14.6355 11.4877 14.6355 12.2081V23.9662C14.6355 24.4583 14.9121 24.8824 15.3149 25.105C15.1621 25.3427 15.071 25.6232 15.071 25.9259C15.071 26.7664 15.7547 27.45 16.5952 27.45C17.4357 27.45 18.1194 26.7664 18.1194 25.9259C18.1194 25.6911 18.0615 25.4712 17.9665 25.2727H24.369C24.2741 25.4713 24.2162 25.6912 24.2162 25.9259C24.2162 26.7664 24.8999 27.45 25.7404 27.45C26.5809 27.45 27.2645 26.7664 27.2645 25.9259C27.2645 25.6232 27.1735 25.3427 27.0207 25.105C27.4235 24.8825 27.7001 24.4583 27.7001 23.9662V12.2081C27.7 11.4877 27.1138 10.9016 26.3936 10.9016ZM16.5952 26.579C16.2351 26.579 15.942 26.2859 15.942 25.9258C15.942 25.5657 16.2351 25.2726 16.5952 25.2726C16.9553 25.2726 17.2484 25.5656 17.2484 25.9258C17.2484 26.286 16.9553 26.579 16.5952 26.579ZM25.7403 26.579C25.3801 26.579 25.0871 26.2859 25.0871 25.9258C25.0871 25.5657 25.3802 25.2726 25.7403 25.2726C26.1004 25.2726 26.3935 25.5657 26.3935 25.9258C26.3935 26.2859 26.1005 26.579 25.7403 26.579ZM26.8288 23.9661C26.829 24.2064 26.6339 24.4016 26.3936 24.4016H15.942C15.7017 24.4016 15.5065 24.2065 15.5065 23.9661V15.0675L16.2559 14.6176C16.9841 14.1808 17.818 13.95 18.6672 13.95H22.3057L22.0613 14.6834C21.9851 14.9116 22.1083 15.1585 22.3365 15.2343C22.3822 15.2491 22.4288 15.2565 22.4741 15.2565C22.6565 15.2565 22.8264 15.1411 22.8869 14.9587L23.2232 13.9501H23.4666L23.8028 14.9587C23.8637 15.1411 24.0336 15.2565 24.216 15.2565C24.2614 15.2565 24.3079 15.2491 24.3536 15.2339C24.5814 15.1581 24.7051 14.9116 24.6288 14.6829L24.4058 14.0145C24.995 14.1085 25.5642 14.3085 26.0794 14.6176L26.8288 15.0675V23.9661ZM26.8291 14.0515L26.5282 13.8708C25.7108 13.3809 24.7814 13.1121 23.8308 13.0843C23.8174 13.0825 23.8047 13.0834 23.7912 13.083C23.7502 13.0825 23.7093 13.0791 23.6684 13.0791H18.6673C17.66 13.0791 16.6715 13.3529 15.8079 13.8708L15.5066 14.0515V12.2081C15.5065 11.9677 15.7016 11.7726 15.942 11.7726H26.3936C26.6339 11.7726 26.8291 11.9677 26.8291 12.2081V14.0515Z" fill="#D7B65D"/>
<path id="Vector_7" d="M15.942 10.4661H26.3936C27.1138 10.4661 27.7001 9.87997 27.6978 9.11612L27.329 5.42806C27.2794 4.93252 27.1409 4.45565 26.9188 4.01008C26.2346 2.64227 24.8698 1.78868 23.3451 1.76165V1.75644C23.3451 1.03608 22.759 0.449951 22.0387 0.449951H20.2968C19.5765 0.449951 18.9903 1.03608 18.9903 1.75644V1.76165C17.4657 1.78868 16.1009 2.64265 15.4167 4.01046C15.1942 4.45555 15.0562 4.9328 15.0065 5.42843L14.6355 9.1596C14.6355 9.87988 15.2216 10.4661 15.942 10.4661ZM20.2968 1.32092H22.0387C22.2791 1.32092 22.4743 1.51601 22.4743 1.75644H19.8613C19.8613 1.51601 20.0564 1.32092 20.2968 1.32092ZM15.8732 5.51502C15.9124 5.12529 16.0208 4.74987 16.1958 4.39972C16.7427 3.30662 17.8415 2.62732 19.0639 2.62732H23.2716C24.494 2.62732 25.5927 3.30672 26.1397 4.39972C26.3147 4.74987 26.4232 5.1252 26.4623 5.51502L26.829 9.1596C26.829 9.40003 26.6339 9.59513 26.3935 9.59513H15.9419C15.7016 9.59513 15.5064 9.40003 15.5042 9.20317L15.8732 5.51502Z" fill="#D7B65D"/>
<path id="Vector_8" d="M22.9096 5.24022C22.9096 5.48102 23.1042 5.67575 23.3451 5.67575C23.586 5.67575 23.7806 5.48112 23.7806 5.24022V4.36926H24.6516V3.49829H17.6838V4.36926H22.9096V5.24022Z" fill="#D7B65D"/>
</g>
</g>
</g>
</g>
<defs>
<clipPath id="clip0_160_63">
<rect width="27" height="27" fill="white" transform="translate(0.699951 0.449951)"/>
</clipPath>
</defs>
</svg>
