<svg width="61" height="61" viewBox="0 0 61 61" fill="none" xmlns="http://www.w3.org/2000/svg">
<g clip-path="url(#clip0_160_506)">
<path d="M27.8913 26.2047V21.6204C27.8913 19.0073 26.8738 16.5507 25.0261 14.7031L21.6441 11.3212C23.0609 10.2486 23.9783 8.54951 23.9783 6.63959C23.9783 3.40311 21.3452 0.77002 18.1087 0.77002H10.2826C7.04609 0.77002 4.41301 3.40311 4.41301 6.63959C4.41301 8.54951 5.33035 10.2487 6.74715 11.3212L3.36523 14.703C1.51754 16.5507 0.5 19.0073 0.5 21.6204V26.2047C0.5 27.8263 1.54297 29.15 2.69598 30.1178C1.54297 31.0855 0.5 32.4092 0.5 34.0309V39.2483C0.5 40.8698 1.54297 42.1936 2.69598 43.1613C1.54297 44.129 0.5 45.4527 0.5 47.0743V54.9004C0.5 58.1369 3.13309 60.77 6.36957 60.77H22.0217C25.2582 60.77 27.8913 58.1369 27.8913 54.9004V47.0743C27.8913 45.4526 26.8483 44.1289 25.6953 43.1613C26.8483 42.1935 27.8913 40.8698 27.8913 39.2483V34.0309C27.8913 32.4091 26.8483 31.0855 25.6953 30.1179C26.8483 29.15 27.8913 27.8264 27.8913 26.2047ZM10.2826 4.68303H18.1087C19.1875 4.68303 20.0653 5.56076 20.0653 6.63959C20.0653 7.71842 19.1875 8.59615 18.1087 8.59615H10.2826C9.20375 8.59615 8.32602 7.71842 8.32602 6.63959C8.32602 5.56076 9.20375 4.68303 10.2826 4.68303ZM23.9783 54.9004C23.9783 55.9793 23.1005 56.857 22.0217 56.857H6.36957C5.29074 56.857 4.41301 55.9793 4.41301 54.9004V47.0859C4.49445 46.681 5.57574 45.7528 6.81734 45.1178H21.5773C22.7244 45.7064 23.8907 46.6473 23.9783 47.0859V54.9004ZM23.9783 39.2367C23.8967 39.6415 22.8153 40.5698 21.5738 41.2049H6.81418C5.66715 40.6162 4.50078 39.6753 4.41301 39.2367V34.0425C4.49445 33.6376 5.57574 32.7094 6.81734 32.0743H21.5773C22.7244 32.6629 23.8907 33.6038 23.9783 34.0425V39.2367ZM23.9783 26.1931C23.8967 26.5979 22.8153 27.5263 21.5738 28.1613H6.81781C5.57434 27.5251 4.49434 26.5977 4.41301 26.1931V21.6204C4.41301 20.0525 5.02355 18.5787 6.13215 17.4701L11.0929 12.5092H17.2982L22.259 17.4699C23.3676 18.5785 23.9782 20.0525 23.9782 21.6203V26.1931H23.9783Z" fill="#D7B65D"/>
<path d="M60.5001 26.2047V21.6204C60.5001 19.0073 59.4825 16.5507 57.6348 14.7031L54.2529 11.3212C55.6697 10.2486 56.587 8.54951 56.587 6.63959C56.587 3.40311 53.954 0.77002 50.7175 0.77002H42.8913C39.6549 0.77002 37.0218 3.40311 37.0218 6.63959C37.0218 8.54951 37.9391 10.2487 39.3559 11.3212L35.974 14.7031C34.1263 16.5506 33.1088 19.0072 33.1088 21.6204V26.2047C33.1088 27.8263 34.1517 29.15 35.3047 30.1178C34.1517 31.0855 33.1088 32.4091 33.1088 34.0308V39.2482C33.1088 40.8697 34.1517 42.1935 35.3047 43.1612C34.1517 44.1289 33.1088 45.4526 33.1088 47.0742V54.9003C33.1088 58.1368 35.7419 60.7699 38.9783 60.7699H54.6305C57.867 60.77 60.5001 58.1369 60.5001 54.9004V47.0743C60.5001 45.4526 59.4571 44.1289 58.3041 43.1613C59.4571 42.1935 60.5001 40.8698 60.5001 39.2483V34.0309C60.5001 32.4091 59.4571 31.0855 58.3041 30.1179C59.4571 29.15 60.5001 27.8264 60.5001 26.2047ZM42.8913 4.68303H50.7175C51.7963 4.68303 52.674 5.56076 52.674 6.63959C52.674 7.71842 51.7963 8.59615 50.7175 8.59615H42.8913C41.8125 8.59615 40.9348 7.71842 40.9348 6.63959C40.9348 5.56076 41.8125 4.68303 42.8913 4.68303ZM56.587 54.9004C56.587 55.9793 55.7093 56.857 54.6305 56.857H38.9783C37.8995 56.857 37.0218 55.9793 37.0218 54.9004V47.0859C37.1032 46.681 38.1845 45.7528 39.4261 45.1178H54.1861C55.3331 45.7064 56.4995 46.6473 56.587 47.0859V54.9004ZM56.587 39.2367C56.5055 39.6415 55.4241 40.5698 54.1825 41.2049H39.4229C38.2759 40.6162 37.1095 39.6753 37.0218 39.2367V34.0425C37.1032 33.6376 38.1845 32.7094 39.4261 32.0743H54.1861C55.3331 32.6629 56.4995 33.6038 56.587 34.0425V39.2367ZM56.587 26.1931C56.5055 26.5979 55.4241 27.5263 54.1825 28.1613H39.4266C38.1831 27.5251 37.1031 26.5977 37.0218 26.1931V21.6203C37.0218 20.0524 37.6323 18.5785 38.7409 17.4699L43.7017 12.5092H49.907L54.8678 17.4699C55.9764 18.5785 56.5869 20.0525 56.5869 21.6203V26.1931H56.587Z" fill="#D7B65D"/>
</g>
<defs>
<clipPath id="clip0_160_506">
<rect width="60" height="60" fill="white" transform="translate(0.5 0.77002)"/>
</clipPath>
</defs>
</svg>
